<svg width="447" height="134" viewBox="0 0 447 134" fill="none" xmlns="http://www.w3.org/2000/svg">
<g clip-path="url(#clip0_1_4329)">
<path d="M43.4955 110.55H443.654" stroke="black"/>
<path d="M43.4955 114.57V110.55" stroke="black"/>
<path d="M41.5626 118.959C41.5626 118.638 41.65 118.365 41.8247 118.139C42.0008 117.913 42.2558 117.741 42.5896 117.621C42.9248 117.502 43.3297 117.442 43.8041 117.442C44.2757 117.442 44.6784 117.502 45.0122 117.621C45.3474 117.742 45.6031 117.915 45.7792 118.141C45.9568 118.368 46.0456 118.641 46.0456 118.959C46.0456 119.278 45.9568 119.55 45.7792 119.775C45.6031 120.003 45.3474 120.176 45.0122 120.295C44.6784 120.416 44.2757 120.476 43.8041 120.476C43.3297 120.476 42.9248 120.417 42.5896 120.297C42.2558 120.178 42.0008 120.006 41.8247 119.78C41.65 119.554 41.5626 119.28 41.5626 118.959ZM42.0314 118.959C42.0314 119.278 42.1848 119.525 42.4916 119.701C42.7984 119.877 43.2359 119.965 43.8041 119.965C44.1819 119.965 44.5037 119.925 44.7693 119.844C45.0349 119.764 45.2373 119.649 45.3765 119.498C45.5157 119.349 45.5853 119.17 45.5853 118.959C45.5853 118.644 45.4298 118.398 45.1187 118.22C44.8091 118.042 44.3709 117.954 43.8041 117.954C43.4263 117.954 43.1052 117.993 42.841 118.073C42.5768 118.153 42.3758 118.267 42.238 118.416C42.1003 118.567 42.0314 118.748 42.0314 118.959ZM41.5626 122.76C41.5626 122.479 41.6109 122.229 41.7075 122.008C41.8041 121.79 41.9383 121.616 42.1102 121.486C42.2835 121.358 42.4845 121.289 42.7132 121.278L42.7132 121.814C42.5726 121.826 42.4511 121.874 42.3488 121.959C42.248 122.045 42.1699 122.156 42.1145 122.294C42.0591 122.432 42.0314 122.584 42.0314 122.752C42.0314 122.939 42.064 123.106 42.1294 123.251C42.1947 123.395 42.2856 123.509 42.4021 123.591C42.5186 123.674 42.6535 123.715 42.8069 123.715C42.9674 123.715 43.1088 123.675 43.2309 123.596C43.3545 123.516 43.4511 123.4 43.5207 123.246C43.5903 123.093 43.6251 122.905 43.6251 122.684L43.6251 122.334L44.0939 122.334L44.0939 122.684C44.0939 122.857 44.1251 123.009 44.1876 123.14C44.2501 123.272 44.3382 123.375 44.4518 123.449C44.5655 123.524 44.699 123.562 44.8524 123.562C45.0001 123.562 45.1287 123.529 45.238 123.464C45.3474 123.398 45.4326 123.306 45.4937 123.187C45.5548 123.069 45.5853 122.93 45.5853 122.769C45.5853 122.618 45.5576 122.476 45.5022 122.343C45.4483 122.211 45.3694 122.103 45.2657 122.019C45.1635 121.935 45.0399 121.89 44.895 121.883L44.895 121.371C45.1237 121.38 45.324 121.449 45.4959 121.578C45.6692 121.707 45.8041 121.876 45.9007 122.085C45.9973 122.295 46.0456 122.526 46.0456 122.778C46.0456 123.047 45.9909 123.279 45.8815 123.472C45.7736 123.665 45.6308 123.814 45.4532 123.917C45.2757 124.021 45.0839 124.073 44.878 124.073C44.6322 124.073 44.4227 124.008 44.2494 123.879C44.0761 123.751 43.9561 123.577 43.8893 123.357L43.8552 123.357C43.8098 123.633 43.6926 123.848 43.5037 124.003C43.3162 124.157 43.0839 124.235 42.8069 124.235C42.5697 124.235 42.3567 124.17 42.1677 124.041C41.9802 123.913 41.8325 123.738 41.7245 123.517C41.6166 123.295 41.5626 123.043 41.5626 122.76ZM41.5882 125.347C41.5882 125.241 41.6258 125.151 41.7011 125.076C41.7764 125.001 41.8666 124.963 41.9717 124.963C42.0768 124.963 42.167 125.001 42.2423 125.076C42.3176 125.151 42.3552 125.241 42.3552 125.347C42.3552 125.452 42.3176 125.542 42.2423 125.617C42.167 125.692 42.0768 125.73 41.9717 125.73C41.9021 125.73 41.8382 125.712 41.7799 125.677C41.7217 125.643 41.6748 125.597 41.6393 125.538C41.6052 125.482 41.5882 125.418 41.5882 125.347ZM41.6223 126.624L42.0058 126.624L43.5825 128.064C43.7672 128.233 43.9277 128.373 44.064 128.482C44.2018 128.591 44.3311 128.672 44.4518 128.725C44.574 128.779 44.7018 128.806 44.8353 128.806C44.9888 128.806 45.1216 128.769 45.2338 128.695C45.346 128.623 45.4326 128.523 45.4937 128.397C45.5548 128.27 45.5853 128.128 45.5853 127.971C45.5853 127.803 45.5505 127.657 45.4809 127.532C45.4128 127.408 45.3169 127.312 45.1933 127.244C45.0697 127.177 44.9248 127.144 44.7586 127.144L44.7586 126.641C45.0143 126.641 45.2388 126.7 45.4319 126.818C45.6251 126.936 45.7757 127.096 45.8836 127.299C45.9916 127.504 46.0456 127.733 46.0456 127.988C46.0456 128.243 45.9916 128.47 45.8836 128.667C45.7757 128.865 45.6301 129.02 45.4468 129.132C45.2636 129.244 45.0598 129.3 44.8353 129.3C44.6748 129.3 44.5179 129.271 44.3645 129.213C44.2125 129.156 44.0427 129.056 43.8552 128.914C43.6692 128.774 43.4419 128.578 43.1734 128.328L42.1251 127.348L42.091 127.348L42.091 129.377L41.6223 129.377L41.6223 126.624ZM41.5626 131.731C41.5626 131.45 41.6109 131.199 41.7075 130.979C41.8041 130.76 41.9383 130.586 42.1102 130.457C42.2835 130.329 42.4845 130.26 42.7132 130.248L42.7132 130.785C42.5726 130.797 42.4511 130.845 42.3488 130.93C42.248 131.015 42.1699 131.127 42.1145 131.265C42.0591 131.402 42.0314 131.555 42.0314 131.723C42.0314 131.91 42.064 132.076 42.1294 132.221C42.1947 132.366 42.2856 132.48 42.4021 132.562C42.5186 132.645 42.6535 132.686 42.8069 132.686C42.9674 132.686 43.1088 132.646 43.2309 132.566C43.3545 132.487 43.4511 132.37 43.5207 132.217C43.5903 132.064 43.6251 131.876 43.6251 131.654L43.6251 131.305L44.0939 131.305L44.0939 131.654C44.0939 131.828 44.1251 131.98 44.1876 132.11C44.2501 132.243 44.3382 132.346 44.4518 132.419C44.5655 132.495 44.699 132.532 44.8524 132.532C45.0001 132.532 45.1287 132.5 45.238 132.434C45.3474 132.369 45.4326 132.277 45.4937 132.157C45.5548 132.039 45.5853 131.9 45.5853 131.74C45.5853 131.589 45.5576 131.447 45.5022 131.314C45.4483 131.181 45.3694 131.074 45.2657 130.99C45.1635 130.906 45.0399 130.86 44.895 130.853L44.895 130.342C45.1237 130.35 45.324 130.419 45.4959 130.549C45.6692 130.678 45.8041 130.847 45.9007 131.056C45.9973 131.266 46.0456 131.497 46.0456 131.748C46.0456 132.018 45.9909 132.25 45.8815 132.443C45.7736 132.636 45.6308 132.784 45.4532 132.888C45.2757 132.992 45.0839 133.044 44.878 133.044C44.6322 133.044 44.4227 132.979 44.2494 132.85C44.0761 132.722 43.9561 132.548 43.8893 132.328L43.8552 132.328C43.8098 132.603 43.6926 132.819 43.5037 132.973C43.3162 133.128 43.0839 133.206 42.8069 133.206C42.5697 133.206 42.3567 133.141 42.1677 133.012C41.9802 132.884 41.8325 132.709 41.7245 132.488C41.6166 132.266 41.5626 132.014 41.5626 131.731Z" fill="black"/>
<path d="M85.9379 118.98C85.9379 118.659 86.0253 118.385 86.2 118.16C86.3761 117.934 86.6311 117.761 86.9649 117.642C87.3001 117.522 87.705 117.463 88.1794 117.463C88.651 117.463 89.0537 117.522 89.3875 117.642C89.7227 117.763 89.9784 117.936 90.1545 118.162C90.3321 118.389 90.4209 118.662 90.4209 118.98C90.4209 119.298 90.3321 119.57 90.1545 119.796C89.9784 120.023 89.7227 120.196 89.3875 120.316C89.0537 120.437 88.651 120.497 88.1794 120.497C87.705 120.497 87.3001 120.437 86.9649 120.318C86.6311 120.199 86.3761 120.026 86.2 119.8C86.0253 119.574 85.9379 119.301 85.9379 118.98ZM86.4067 118.98C86.4067 119.298 86.5601 119.545 86.8669 119.721C87.1737 119.897 87.6112 119.986 88.1794 119.986C88.5572 119.986 88.879 119.945 89.1446 119.864C89.4102 119.785 89.6126 119.669 89.7518 119.519C89.891 119.37 89.9606 119.19 89.9606 118.98C89.9606 118.665 89.8051 118.418 89.494 118.24C89.1844 118.063 88.7462 117.974 88.1794 117.974C87.8016 117.974 87.4805 118.014 87.2163 118.093C86.9521 118.173 86.7511 118.287 86.6133 118.437C86.4756 118.587 86.4067 118.768 86.4067 118.98ZM86.8925 121.204L87.3271 121.204L90.3612 123.122L90.3612 123.437L89.6879 123.437L89.6879 123.224L87.3953 121.775L87.3612 121.775L87.3612 124.358L86.8925 124.358L86.8925 121.204ZM85.9976 123.258L87.0246 123.258L87.227 123.258L90.3612 123.258L90.3612 123.761L85.9976 123.761L85.9976 123.258ZM85.9635 125.326C85.9635 125.221 86.0011 125.131 86.0764 125.055C86.1517 124.98 86.2419 124.943 86.347 124.943C86.4521 124.943 86.5423 124.98 86.6176 125.055C86.6929 125.131 86.7305 125.221 86.7305 125.326C86.7305 125.431 86.6929 125.521 86.6176 125.597C86.5423 125.672 86.4521 125.71 86.347 125.71C86.2774 125.71 86.2135 125.692 86.1552 125.656C86.097 125.622 86.0501 125.576 86.0146 125.518C85.9805 125.461 85.9635 125.397 85.9635 125.326ZM85.9976 126.603L86.3811 126.603L87.9578 128.044C88.1425 128.213 88.303 128.352 88.4393 128.461C88.5771 128.571 88.7064 128.652 88.8271 128.704C88.9493 128.758 89.0771 128.785 89.2106 128.785C89.3641 128.785 89.4969 128.748 89.6091 128.674C89.7213 128.602 89.8079 128.503 89.869 128.376C89.9301 128.25 89.9606 128.108 89.9606 127.95C89.9606 127.782 89.9258 127.636 89.8562 127.511C89.7881 127.388 89.6922 127.292 89.5686 127.223C89.445 127.157 89.3001 127.123 89.1339 127.123L89.1339 126.62C89.3896 126.62 89.6141 126.679 89.8072 126.797C90.0004 126.915 90.151 127.076 90.2589 127.279C90.3669 127.483 90.4209 127.713 90.4209 127.967C90.4209 128.223 90.3669 128.449 90.2589 128.647C90.151 128.844 90.0054 128.999 89.8222 129.111C89.6389 129.223 89.4351 129.28 89.2106 129.28C89.0501 129.28 88.8932 129.25 88.7398 129.192C88.5878 129.135 88.418 129.036 88.2305 128.894C88.0445 128.753 87.8172 128.558 87.5487 128.308L86.5004 127.328L86.4663 127.328L86.4663 129.356L85.9976 129.356L85.9976 126.603ZM85.9379 131.711C85.9379 131.429 85.9862 131.179 86.0828 130.959C86.1794 130.74 86.3136 130.566 86.4855 130.437C86.6588 130.309 86.8598 130.239 87.0885 130.228L87.0885 130.765C86.9479 130.776 86.8264 130.824 86.7241 130.91C86.6233 130.995 86.5452 131.106 86.4898 131.244C86.4344 131.382 86.4067 131.535 86.4067 131.702C86.4067 131.89 86.4393 132.056 86.5047 132.201C86.57 132.346 86.6609 132.459 86.7774 132.542C86.8939 132.624 87.0288 132.665 87.1822 132.665C87.3427 132.665 87.4841 132.625 87.6062 132.546C87.7298 132.466 87.8264 132.35 87.896 132.196C87.9656 132.043 88.0004 131.856 88.0004 131.634L88.0004 131.285L88.4692 131.285L88.4692 131.634C88.4692 131.807 88.5004 131.959 88.5629 132.09C88.6254 132.222 88.7135 132.325 88.8271 132.399C88.9408 132.474 89.0743 132.512 89.2277 132.512C89.3754 132.512 89.504 132.479 89.6133 132.414C89.7227 132.348 89.8079 132.256 89.869 132.137C89.9301 132.019 89.9606 131.88 89.9606 131.719C89.9606 131.569 89.9329 131.427 89.8775 131.293C89.8236 131.161 89.7447 131.053 89.641 130.969C89.5388 130.885 89.4152 130.84 89.2703 130.833L89.2703 130.321C89.499 130.33 89.6993 130.399 89.8712 130.528C90.0445 130.657 90.1794 130.826 90.276 131.035C90.3726 131.245 90.4209 131.476 90.4209 131.728C90.4209 131.998 90.3662 132.229 90.2568 132.422C90.1489 132.615 90.0061 132.764 89.8285 132.868C89.651 132.971 89.4592 133.023 89.2533 133.023C89.0075 133.023 88.798 132.959 88.6247 132.829C88.4514 132.701 88.3314 132.527 88.2646 132.307L88.2305 132.307C88.1851 132.583 88.0679 132.798 87.879 132.953C87.6915 133.108 87.4592 133.185 87.1822 133.185C86.945 133.185 86.732 133.12 86.543 132.991C86.3555 132.863 86.2078 132.689 86.0998 132.467C85.9919 132.245 85.9379 131.993 85.9379 131.711Z" fill="black"/>
<path d="M130.313 119.059C130.313 118.738 130.401 118.464 130.575 118.239C130.751 118.013 131.006 117.84 131.34 117.721C131.675 117.602 132.08 117.542 132.555 117.542C133.026 117.542 133.429 117.602 133.763 117.721C134.098 117.842 134.354 118.015 134.53 118.241C134.707 118.468 134.796 118.741 134.796 119.059C134.796 119.377 134.707 119.649 134.53 119.875C134.354 120.102 134.098 120.276 133.763 120.395C133.429 120.516 133.026 120.576 132.555 120.576C132.08 120.576 131.675 120.516 131.34 120.397C131.006 120.278 130.751 120.105 130.575 119.879C130.401 119.653 130.313 119.38 130.313 119.059ZM130.782 119.059C130.782 119.377 130.935 119.624 131.242 119.8C131.549 119.977 131.987 120.065 132.555 120.065C132.933 120.065 133.254 120.024 133.52 119.943C133.786 119.864 133.988 119.749 134.127 119.598C134.266 119.449 134.336 119.269 134.336 119.059C134.336 118.744 134.18 118.497 133.869 118.32C133.56 118.142 133.121 118.053 132.555 118.053C132.177 118.053 131.856 118.093 131.592 118.173C131.327 118.252 131.126 118.366 130.989 118.516C130.851 118.666 130.782 118.847 130.782 119.059ZM130.313 122.749C130.313 122.499 130.363 122.274 130.462 122.074C130.562 121.874 130.698 121.713 130.871 121.592C131.045 121.472 131.242 121.406 131.464 121.394L131.464 121.906C131.266 121.925 131.103 122.015 130.974 122.174C130.846 122.335 130.782 122.526 130.782 122.749C130.782 122.928 130.824 123.087 130.908 123.227C130.991 123.367 131.107 123.477 131.253 123.557C131.401 123.638 131.567 123.678 131.754 123.678C131.944 123.678 132.114 123.636 132.263 123.553C132.413 123.47 132.532 123.357 132.619 123.212C132.705 123.067 132.749 122.901 132.751 122.715C132.752 122.582 132.732 122.445 132.689 122.304C132.648 122.163 132.594 122.048 132.529 121.957L132.589 121.462L134.737 121.727L134.737 123.994L134.268 123.994L134.268 122.17L132.981 122.016L132.981 122.042C133.052 122.131 133.111 122.244 133.158 122.379C133.205 122.513 133.228 122.654 133.228 122.8C133.228 123.067 133.164 123.305 133.036 123.514C132.91 123.724 132.737 123.889 132.516 124.009C132.296 124.129 132.045 124.19 131.762 124.19C131.484 124.19 131.235 124.127 131.016 124.002C130.799 123.879 130.627 123.708 130.501 123.491C130.376 123.273 130.313 123.026 130.313 122.749ZM130.339 125.247C130.339 125.142 130.376 125.052 130.452 124.976C130.527 124.901 130.617 124.863 130.722 124.863C130.827 124.863 130.918 124.901 130.993 124.976C131.068 125.052 131.106 125.142 131.106 125.247C131.106 125.352 131.068 125.442 130.993 125.518C130.918 125.593 130.827 125.631 130.722 125.631C130.653 125.631 130.589 125.613 130.531 125.577C130.472 125.543 130.425 125.497 130.39 125.439C130.356 125.382 130.339 125.318 130.339 125.247ZM130.373 126.524L130.756 126.524L132.333 127.965C132.518 128.134 132.678 128.273 132.815 128.382C132.952 128.492 133.082 128.573 133.202 128.625C133.325 128.679 133.452 128.706 133.586 128.706C133.739 128.706 133.872 128.669 133.984 128.595C134.097 128.523 134.183 128.423 134.244 128.297C134.305 128.171 134.336 128.029 134.336 127.871C134.336 127.703 134.301 127.557 134.232 127.432C134.163 127.308 134.067 127.213 133.944 127.144C133.82 127.078 133.675 127.044 133.509 127.044L133.509 126.541C133.765 126.541 133.989 126.6 134.183 126.718C134.376 126.836 134.526 126.997 134.634 127.2C134.742 127.404 134.796 127.634 134.796 127.888C134.796 128.144 134.742 128.37 134.634 128.568C134.526 128.765 134.381 128.92 134.197 129.032C134.014 129.144 133.81 129.2 133.586 129.2C133.425 129.2 133.268 129.171 133.115 129.113C132.963 129.056 132.793 128.957 132.606 128.815C132.42 128.674 132.192 128.479 131.924 128.229L130.876 127.249L130.842 127.249L130.842 129.277L130.373 129.277L130.373 126.524ZM130.313 131.632C130.313 131.35 130.362 131.1 130.458 130.879C130.555 130.661 130.689 130.487 130.861 130.357C131.034 130.23 131.235 130.16 131.464 130.149L131.464 130.686C131.323 130.697 131.202 130.745 131.099 130.83C130.999 130.916 130.92 131.027 130.865 131.165C130.81 131.303 130.782 131.455 130.782 131.623C130.782 131.811 130.815 131.977 130.88 132.122C130.945 132.267 131.036 132.38 131.153 132.463C131.269 132.545 131.404 132.586 131.558 132.586C131.718 132.586 131.859 132.546 131.982 132.467C132.105 132.387 132.202 132.271 132.271 132.117C132.341 131.964 132.376 131.776 132.376 131.555L132.376 131.205L132.844 131.205L132.844 131.555C132.844 131.728 132.876 131.88 132.938 132.011C133.001 132.143 133.089 132.246 133.202 132.32C133.316 132.395 133.45 132.433 133.603 132.433C133.751 132.433 133.879 132.4 133.989 132.335C134.098 132.269 134.183 132.177 134.244 132.058C134.305 131.94 134.336 131.801 134.336 131.64C134.336 131.49 134.308 131.347 134.253 131.214C134.199 131.082 134.12 130.974 134.016 130.89C133.914 130.806 133.79 130.761 133.646 130.754L133.646 130.242C133.874 130.251 134.075 130.32 134.246 130.449C134.42 130.578 134.555 130.747 134.651 130.956C134.748 131.166 134.796 131.397 134.796 131.649C134.796 131.918 134.741 132.15 134.632 132.343C134.524 132.536 134.381 132.685 134.204 132.789C134.026 132.892 133.835 132.944 133.629 132.944C133.383 132.944 133.173 132.879 133 132.75C132.827 132.622 132.707 132.448 132.64 132.228L132.606 132.228C132.56 132.504 132.443 132.719 132.254 132.874C132.067 133.029 131.835 133.106 131.558 133.106C131.32 133.106 131.107 133.041 130.918 132.912C130.731 132.784 130.583 132.61 130.475 132.388C130.367 132.166 130.313 131.914 130.313 131.632Z" fill="black"/>
<path d="M174.689 119.033C174.689 118.712 174.776 118.438 174.951 118.212C175.127 117.986 175.382 117.814 175.716 117.695C176.051 117.575 176.456 117.516 176.93 117.516C177.402 117.516 177.804 117.575 178.138 117.695C178.473 117.815 178.729 117.989 178.905 118.214C179.083 118.442 179.171 118.714 179.171 119.033C179.171 119.351 179.083 119.623 178.905 119.849C178.729 120.076 178.473 120.249 178.138 120.369C177.804 120.489 177.402 120.55 176.93 120.55C176.456 120.55 176.051 120.49 175.716 120.371C175.382 120.251 175.127 120.079 174.951 119.853C174.776 119.627 174.689 119.354 174.689 119.033ZM175.157 119.033C175.157 119.351 175.311 119.598 175.618 119.774C175.924 119.95 176.362 120.038 176.93 120.038C177.308 120.038 177.63 119.998 177.895 119.917C178.161 119.837 178.363 119.722 178.502 119.572C178.642 119.422 178.711 119.243 178.711 119.033C178.711 118.717 178.556 118.471 178.245 118.293C177.935 118.116 177.497 118.027 176.93 118.027C176.552 118.027 176.231 118.067 175.967 118.146C175.703 118.226 175.502 118.34 175.364 118.489C175.226 118.64 175.157 118.821 175.157 119.033ZM174.689 122.808C174.691 122.629 174.725 122.45 174.791 122.271C174.856 122.092 174.966 121.929 175.121 121.781C175.277 121.633 175.488 121.515 175.754 121.425C176.021 121.336 176.356 121.291 176.76 121.291C177.146 121.291 177.488 121.327 177.787 121.4C178.086 121.472 178.338 121.577 178.543 121.715C178.749 121.853 178.905 122.019 179.012 122.214C179.118 122.41 179.171 122.631 179.171 122.876C179.171 123.121 179.122 123.338 179.024 123.528C178.928 123.72 178.793 123.876 178.62 123.997C178.446 124.118 178.247 124.196 178.021 124.231L178.021 123.712C178.217 123.663 178.38 123.57 178.509 123.43C178.638 123.291 178.703 123.106 178.703 122.876C178.703 122.538 178.556 122.272 178.262 122.077C177.968 121.884 177.555 121.787 177.024 121.785L177.024 121.82C177.144 121.899 177.247 121.994 177.333 122.103C177.419 122.214 177.486 122.336 177.533 122.469C177.58 122.603 177.603 122.744 177.603 122.893C177.603 123.143 177.541 123.372 177.416 123.579C177.292 123.787 177.121 123.953 176.902 124.078C176.685 124.203 176.436 124.266 176.154 124.266C175.885 124.266 175.637 124.205 175.413 124.084C175.19 123.964 175.012 123.794 174.88 123.575C174.75 123.358 174.686 123.102 174.689 122.808ZM175.157 122.808C175.157 122.987 175.202 123.148 175.292 123.29C175.381 123.433 175.501 123.546 175.652 123.628C175.802 123.712 175.97 123.754 176.154 123.754C176.335 123.754 176.499 123.714 176.647 123.633C176.796 123.553 176.914 123.443 177.002 123.302C177.091 123.163 177.135 123.004 177.135 122.825C177.135 122.69 177.108 122.565 177.054 122.448C177.001 122.332 176.929 122.229 176.836 122.141C176.744 122.055 176.638 121.986 176.519 121.937C176.401 121.887 176.277 121.862 176.146 121.862C175.973 121.862 175.811 121.903 175.66 121.984C175.51 122.066 175.388 122.178 175.296 122.32C175.203 122.464 175.157 122.626 175.157 122.808ZM174.714 125.273C174.714 125.168 174.752 125.078 174.827 125.003C174.902 124.927 174.993 124.89 175.098 124.89C175.203 124.89 175.293 124.927 175.368 125.003C175.443 125.078 175.481 125.168 175.481 125.273C175.481 125.378 175.443 125.469 175.368 125.544C175.293 125.619 175.203 125.657 175.098 125.657C175.028 125.657 174.964 125.639 174.906 125.604C174.848 125.57 174.801 125.523 174.765 125.465C174.731 125.408 174.714 125.344 174.714 125.273ZM174.748 126.551L175.132 126.551L176.708 127.991C176.893 128.16 177.054 128.299 177.19 128.409C177.328 128.518 177.457 128.599 177.578 128.652C177.7 128.706 177.828 128.733 177.961 128.733C178.115 128.733 178.247 128.696 178.36 128.622C178.472 128.549 178.559 128.45 178.62 128.323C178.681 128.197 178.711 128.055 178.711 127.897C178.711 127.73 178.676 127.583 178.607 127.458C178.539 127.335 178.443 127.239 178.319 127.171C178.196 127.104 178.051 127.071 177.885 127.071L177.885 126.568C178.14 126.568 178.365 126.627 178.558 126.745C178.751 126.862 178.902 127.023 179.01 127.226C179.118 127.431 179.171 127.66 179.171 127.914C179.171 128.17 179.118 128.397 179.01 128.594C178.902 128.791 178.756 128.946 178.573 129.059C178.39 129.171 178.186 129.227 177.961 129.227C177.801 129.227 177.644 129.198 177.49 129.139C177.338 129.083 177.169 128.983 176.981 128.841C176.795 128.701 176.568 128.505 176.299 128.255L175.251 127.275L175.217 127.275L175.217 129.304L174.748 129.304L174.748 126.551ZM174.689 131.658C174.689 131.377 174.737 131.126 174.833 130.906C174.93 130.687 175.064 130.513 175.236 130.384C175.409 130.256 175.61 130.186 175.839 130.175L175.839 130.712C175.698 130.723 175.577 130.772 175.475 130.857C175.374 130.942 175.296 131.054 175.24 131.191C175.185 131.329 175.157 131.482 175.157 131.649C175.157 131.837 175.19 132.003 175.255 132.148C175.321 132.293 175.412 132.407 175.528 132.489C175.644 132.571 175.779 132.612 175.933 132.612C176.093 132.612 176.235 132.573 176.357 132.493C176.48 132.414 176.577 132.297 176.647 132.144C176.716 131.99 176.751 131.803 176.751 131.581L176.751 131.232L177.22 131.232L177.22 131.581C177.22 131.755 177.251 131.907 177.314 132.037C177.376 132.169 177.464 132.272 177.578 132.346C177.691 132.421 177.825 132.459 177.978 132.459C178.126 132.459 178.255 132.426 178.364 132.361C178.473 132.296 178.559 132.203 178.62 132.084C178.681 131.966 178.711 131.827 178.711 131.666C178.711 131.516 178.684 131.374 178.628 131.24C178.574 131.108 178.495 131 178.392 130.916C178.289 130.833 178.166 130.787 178.021 130.78L178.021 130.269C178.25 130.277 178.45 130.346 178.622 130.475C178.795 130.605 178.93 130.774 179.027 130.983C179.123 131.193 179.171 131.424 179.171 131.675C179.171 131.945 179.117 132.176 179.007 132.37C178.899 132.563 178.757 132.711 178.579 132.815C178.402 132.919 178.21 132.97 178.004 132.97C177.758 132.97 177.549 132.906 177.375 132.777C177.202 132.649 177.082 132.475 177.015 132.255L176.981 132.255C176.936 132.53 176.818 132.745 176.63 132.9C176.442 133.055 176.21 133.132 175.933 133.132C175.696 133.132 175.483 133.068 175.294 132.938C175.106 132.811 174.958 132.636 174.85 132.414C174.743 132.193 174.689 131.941 174.689 131.658Z" fill="black"/>
<path d="M219.064 119.033C219.064 118.712 219.151 118.438 219.326 118.212C219.502 117.986 219.757 117.814 220.091 117.695C220.426 117.575 220.831 117.516 221.305 117.516C221.777 117.516 222.18 117.575 222.513 117.695C222.849 117.815 223.104 117.989 223.28 118.214C223.458 118.442 223.547 118.714 223.547 119.033C223.547 119.351 223.458 119.623 223.28 119.849C223.104 120.076 222.849 120.249 222.513 120.369C222.18 120.489 221.777 120.55 221.305 120.55C220.831 120.55 220.426 120.49 220.091 120.371C219.757 120.251 219.502 120.079 219.326 119.853C219.151 119.627 219.064 119.354 219.064 119.033ZM219.533 119.033C219.533 119.351 219.686 119.598 219.993 119.774C220.3 119.95 220.737 120.038 221.305 120.038C221.683 120.038 222.005 119.998 222.271 119.917C222.536 119.837 222.739 119.722 222.878 119.572C223.017 119.422 223.087 119.243 223.087 119.033C223.087 118.717 222.931 118.471 222.62 118.293C222.31 118.116 221.872 118.027 221.305 118.027C220.927 118.027 220.606 118.067 220.342 118.146C220.078 118.226 219.877 118.34 219.739 118.489C219.601 118.64 219.533 118.821 219.533 119.033ZM219.064 122.808C219.067 122.629 219.101 122.45 219.166 122.271C219.231 122.092 219.342 121.929 219.496 121.781C219.653 121.633 219.864 121.515 220.129 121.425C220.396 121.336 220.731 121.291 221.135 121.291C221.521 121.291 221.864 121.327 222.162 121.4C222.462 121.472 222.714 121.577 222.918 121.715C223.124 121.853 223.28 122.019 223.387 122.214C223.494 122.41 223.547 122.631 223.547 122.876C223.547 123.121 223.498 123.338 223.4 123.528C223.303 123.72 223.168 123.876 222.995 123.997C222.822 124.118 222.622 124.196 222.396 124.231L222.396 123.712C222.592 123.663 222.755 123.57 222.884 123.43C223.013 123.291 223.078 123.106 223.078 122.876C223.078 122.538 222.931 122.272 222.637 122.077C222.343 121.884 221.93 121.787 221.399 121.785L221.399 121.82C221.52 121.899 221.623 121.994 221.708 122.103C221.795 122.214 221.861 122.336 221.908 122.469C221.955 122.603 221.979 122.744 221.979 122.893C221.979 123.143 221.916 123.372 221.791 123.579C221.668 123.787 221.496 123.953 221.278 124.078C221.06 124.203 220.811 124.266 220.53 124.266C220.26 124.266 220.013 124.205 219.788 124.084C219.565 123.964 219.388 123.794 219.256 123.575C219.125 123.358 219.061 123.102 219.064 122.808ZM219.533 122.808C219.533 122.987 219.577 123.148 219.667 123.29C219.756 123.433 219.876 123.546 220.027 123.628C220.177 123.712 220.345 123.754 220.53 123.754C220.71 123.754 220.874 123.714 221.022 123.633C221.171 123.553 221.29 123.443 221.378 123.302C221.466 123.163 221.51 123.004 221.51 122.825C221.51 122.69 221.483 122.565 221.429 122.448C221.376 122.332 221.304 122.229 221.212 122.141C221.119 122.055 221.013 121.986 220.894 121.937C220.776 121.887 220.652 121.862 220.521 121.862C220.348 121.862 220.186 121.903 220.035 121.984C219.885 122.066 219.763 122.178 219.671 122.32C219.579 122.464 219.533 122.626 219.533 122.808ZM219.089 125.273C219.089 125.168 219.127 125.078 219.202 125.003C219.278 124.927 219.368 124.89 219.473 124.89C219.578 124.89 219.668 124.927 219.744 125.003C219.819 125.078 219.856 125.168 219.856 125.273C219.856 125.378 219.819 125.469 219.744 125.544C219.668 125.619 219.578 125.657 219.473 125.657C219.403 125.657 219.339 125.639 219.281 125.604C219.223 125.57 219.176 125.523 219.141 125.465C219.106 125.408 219.089 125.344 219.089 125.273ZM219.123 126.551L219.507 126.551L221.084 127.991C221.268 128.16 221.429 128.299 221.565 128.409C221.703 128.518 221.832 128.599 221.953 128.652C222.075 128.706 222.203 128.733 222.337 128.733C222.49 128.733 222.623 128.696 222.735 128.622C222.847 128.549 222.934 128.45 222.995 128.323C223.056 128.197 223.087 128.055 223.087 127.897C223.087 127.73 223.052 127.583 222.982 127.458C222.914 127.335 222.818 127.239 222.695 127.171C222.571 127.104 222.426 127.071 222.26 127.071L222.26 126.568C222.516 126.568 222.74 126.627 222.933 126.745C223.126 126.862 223.277 127.023 223.385 127.226C223.493 127.431 223.547 127.66 223.547 127.914C223.547 128.17 223.493 128.397 223.385 128.594C223.277 128.791 223.131 128.946 222.948 129.059C222.765 129.171 222.561 129.227 222.337 129.227C222.176 129.227 222.019 129.198 221.866 129.139C221.714 129.083 221.544 128.983 221.356 128.841C221.17 128.701 220.943 128.505 220.675 128.255L219.626 127.275L219.592 127.275L219.592 129.304L219.123 129.304L219.123 126.551ZM219.064 131.658C219.064 131.377 219.112 131.126 219.209 130.906C219.305 130.687 219.44 130.513 219.611 130.384C219.785 130.256 219.986 130.186 220.214 130.175L220.214 130.712C220.074 130.723 219.952 130.772 219.85 130.857C219.749 130.942 219.671 131.054 219.616 131.191C219.56 131.329 219.533 131.482 219.533 131.649C219.533 131.837 219.565 132.003 219.631 132.148C219.696 132.293 219.787 132.407 219.903 132.489C220.02 132.571 220.155 132.612 220.308 132.612C220.469 132.612 220.61 132.573 220.732 132.493C220.856 132.414 220.952 132.297 221.022 132.144C221.092 131.99 221.126 131.803 221.126 131.581L221.126 131.232L221.595 131.232L221.595 131.581C221.595 131.755 221.626 131.907 221.689 132.037C221.751 132.169 221.839 132.272 221.953 132.346C222.067 132.421 222.2 132.459 222.354 132.459C222.501 132.459 222.63 132.426 222.739 132.361C222.849 132.296 222.934 132.203 222.995 132.084C223.056 131.966 223.087 131.827 223.087 131.666C223.087 131.516 223.059 131.374 223.003 131.24C222.949 131.108 222.871 131 222.767 130.916C222.665 130.833 222.541 130.787 222.396 130.78L222.396 130.269C222.625 130.277 222.825 130.346 222.997 130.475C223.17 130.605 223.305 130.774 223.402 130.983C223.498 131.193 223.547 131.424 223.547 131.675C223.547 131.945 223.492 132.176 223.383 132.37C223.275 132.563 223.132 132.711 222.954 132.815C222.777 132.919 222.585 132.97 222.379 132.97C222.133 132.97 221.924 132.906 221.751 132.777C221.577 132.649 221.457 132.475 221.391 132.255L221.356 132.255C221.311 132.53 221.194 132.745 221.005 132.9C220.817 133.055 220.585 133.132 220.308 133.132C220.071 133.132 219.858 133.068 219.669 132.938C219.481 132.811 219.334 132.636 219.226 132.414C219.118 132.193 219.064 131.941 219.064 131.658Z" fill="black"/>
<path d="M263.439 119.522C263.439 119.201 263.526 118.927 263.701 118.702C263.877 118.476 264.132 118.303 264.466 118.184C264.801 118.064 265.206 118.005 265.681 118.005C266.152 118.005 266.555 118.064 266.889 118.184C267.224 118.305 267.48 118.478 267.656 118.704C267.833 118.931 267.922 119.204 267.922 119.522C267.922 119.84 267.833 120.112 267.656 120.338C267.48 120.565 267.224 120.738 266.889 120.858C266.555 120.979 266.152 121.039 265.681 121.039C265.206 121.039 264.801 120.979 264.466 120.86C264.132 120.741 263.877 120.568 263.701 120.342C263.526 120.116 263.439 119.843 263.439 119.522ZM263.908 119.522C263.908 119.84 264.061 120.087 264.368 120.263C264.675 120.439 265.112 120.528 265.681 120.528C266.058 120.528 266.38 120.487 266.646 120.406C266.911 120.327 267.114 120.211 267.253 120.061C267.392 119.912 267.462 119.732 267.462 119.522C267.462 119.206 267.306 118.96 266.995 118.782C266.686 118.605 266.247 118.516 265.681 118.516C265.303 118.516 264.982 118.556 264.718 118.635C264.453 118.715 264.252 118.829 264.115 118.979C263.977 119.129 263.908 119.31 263.908 119.522ZM263.499 121.868L267.36 123.819L267.394 123.819L267.394 121.569L267.862 121.569L267.862 124.365L267.368 124.365L263.499 122.422L263.499 121.868ZM263.465 124.784C263.465 124.679 263.502 124.589 263.578 124.513C263.653 124.438 263.743 124.401 263.848 124.401C263.953 124.401 264.044 124.438 264.119 124.513C264.194 124.589 264.232 124.679 264.232 124.784C264.232 124.889 264.194 124.979 264.119 125.055C264.044 125.13 263.953 125.168 263.848 125.168C263.779 125.168 263.715 125.15 263.656 125.114C263.598 125.08 263.551 125.034 263.516 124.976C263.482 124.919 263.465 124.855 263.465 124.784ZM263.499 126.061L263.882 126.061L265.459 127.502C265.644 127.671 265.804 127.81 265.941 127.919C266.078 128.029 266.208 128.11 266.328 128.162C266.45 128.216 266.578 128.243 266.712 128.243C266.865 128.243 266.998 128.206 267.11 128.132C267.223 128.06 267.309 127.961 267.37 127.834C267.431 127.708 267.462 127.566 267.462 127.408C267.462 127.24 267.427 127.094 267.357 126.969C267.289 126.846 267.193 126.75 267.07 126.681C266.946 126.615 266.801 126.581 266.635 126.581L266.635 126.078C266.891 126.078 267.115 126.137 267.308 126.255C267.502 126.373 267.652 126.534 267.76 126.737C267.868 126.941 267.922 127.171 267.922 127.425C267.922 127.681 267.868 127.907 267.76 128.105C267.652 128.302 267.507 128.457 267.323 128.569C267.14 128.681 266.936 128.738 266.712 128.738C266.551 128.738 266.394 128.708 266.241 128.65C266.089 128.593 265.919 128.494 265.732 128.352C265.546 128.211 265.318 128.016 265.05 127.766L264.002 126.786L263.968 126.786L263.968 128.814L263.499 128.814L263.499 126.061ZM263.439 131.169C263.439 130.887 263.487 130.637 263.584 130.417C263.681 130.198 263.815 130.024 263.987 129.895C264.16 129.767 264.361 129.697 264.59 129.686L264.59 130.223C264.449 130.234 264.328 130.282 264.225 130.368C264.124 130.453 264.046 130.564 263.991 130.702C263.936 130.84 263.908 130.993 263.908 131.16C263.908 131.348 263.941 131.514 264.006 131.659C264.071 131.804 264.162 131.917 264.279 132C264.395 132.082 264.53 132.123 264.683 132.123C264.844 132.123 264.985 132.083 265.107 132.004C265.231 131.924 265.328 131.808 265.397 131.654C265.467 131.501 265.502 131.314 265.502 131.092L265.502 130.743L265.97 130.743L265.97 131.092C265.97 131.265 266.002 131.417 266.064 131.548C266.127 131.68 266.215 131.783 266.328 131.857C266.442 131.932 266.575 131.97 266.729 131.97C266.877 131.97 267.005 131.937 267.115 131.872C267.224 131.806 267.309 131.714 267.37 131.595C267.431 131.477 267.462 131.338 267.462 131.177C267.462 131.027 267.434 130.885 267.379 130.751C267.325 130.619 267.246 130.511 267.142 130.427C267.04 130.343 266.916 130.298 266.772 130.291L266.772 129.779C267 129.788 267.2 129.857 267.372 129.986C267.546 130.115 267.681 130.284 267.777 130.493C267.874 130.703 267.922 130.934 267.922 131.186C267.922 131.456 267.867 131.687 267.758 131.88C267.65 132.074 267.507 132.222 267.33 132.326C267.152 132.429 266.96 132.481 266.754 132.481C266.509 132.481 266.299 132.417 266.126 132.287C265.953 132.159 265.833 131.985 265.766 131.765L265.732 131.765C265.686 132.041 265.569 132.256 265.38 132.411C265.193 132.566 264.96 132.643 264.683 132.643C264.446 132.643 264.233 132.578 264.044 132.449C263.857 132.321 263.709 132.147 263.601 131.925C263.493 131.703 263.439 131.451 263.439 131.169Z" fill="black"/>
<path d="M308.897 119.021C308.897 118.7 308.984 118.426 309.159 118.201C309.335 117.975 309.59 117.802 309.924 117.683C310.259 117.563 310.664 117.504 311.138 117.504C311.61 117.504 312.013 117.563 312.346 117.683C312.682 117.804 312.937 117.977 313.113 118.203C313.291 118.43 313.38 118.703 313.38 119.021C313.38 119.339 313.291 119.611 313.113 119.837C312.937 120.064 312.682 120.237 312.346 120.357C312.013 120.478 311.61 120.538 311.138 120.538C310.664 120.538 310.259 120.478 309.924 120.359C309.59 120.24 309.335 120.067 309.159 119.841C308.984 119.615 308.897 119.342 308.897 119.021ZM309.366 119.021C309.366 119.339 309.519 119.586 309.826 119.762C310.133 119.938 310.57 120.027 311.138 120.027C311.516 120.027 311.838 119.986 312.103 119.905C312.369 119.826 312.571 119.71 312.711 119.56C312.85 119.411 312.919 119.231 312.919 119.021C312.919 118.706 312.764 118.459 312.453 118.282C312.143 118.104 311.705 118.015 311.138 118.015C310.76 118.015 310.439 118.055 310.175 118.134C309.911 118.214 309.71 118.328 309.572 118.478C309.434 118.628 309.366 118.809 309.366 119.021ZM308.897 122.745C308.897 122.453 308.949 122.194 309.052 121.97C309.157 121.747 309.302 121.573 309.485 121.448C309.669 121.323 309.88 121.261 310.116 121.262C310.3 121.261 310.471 121.297 310.627 121.371C310.785 121.445 310.916 121.546 311.021 121.674C311.128 121.803 311.195 121.947 311.223 122.106L311.249 122.106C311.303 121.897 311.42 121.731 311.601 121.608C311.782 121.484 311.989 121.423 312.221 121.424C312.442 121.423 312.64 121.479 312.815 121.593C312.99 121.706 313.128 121.862 313.228 122.061C313.329 122.262 313.38 122.49 313.38 122.745C313.38 122.998 313.329 123.224 313.228 123.423C313.128 123.622 312.99 123.778 312.815 123.892C312.64 124.007 312.442 124.065 312.221 124.066C311.989 124.065 311.782 124.002 311.601 123.877C311.42 123.753 311.303 123.589 311.249 123.384L311.223 123.384C311.195 123.542 311.128 123.684 311.021 123.811C310.916 123.937 310.785 124.038 310.627 124.113C310.471 124.188 310.3 124.227 310.116 124.228C309.88 124.227 309.669 124.163 309.485 124.036C309.302 123.911 309.157 123.737 309.052 123.514C308.949 123.293 308.897 123.036 308.897 122.745ZM309.366 122.745C309.366 122.943 309.397 123.113 309.461 123.257C309.525 123.4 309.616 123.511 309.732 123.589C309.848 123.667 309.985 123.707 310.141 123.708C310.306 123.707 310.451 123.664 310.578 123.581C310.704 123.497 310.804 123.382 310.876 123.237C310.949 123.094 310.985 122.93 310.985 122.745C310.985 122.559 310.949 122.393 310.876 122.247C310.804 122.102 310.704 121.987 310.578 121.904C310.451 121.821 310.306 121.781 310.141 121.782C309.985 121.781 309.848 121.818 309.732 121.895C309.616 121.973 309.525 122.085 309.461 122.23C309.397 122.375 309.366 122.546 309.366 122.745ZM311.437 122.745C311.437 122.902 311.468 123.04 311.53 123.161C311.593 123.283 311.68 123.379 311.792 123.448C311.905 123.518 312.036 123.554 312.187 123.555C312.334 123.554 312.463 123.519 312.572 123.451C312.683 123.382 312.768 123.288 312.828 123.167C312.889 123.046 312.919 122.906 312.919 122.745C312.919 122.582 312.889 122.439 312.828 122.317C312.768 122.195 312.683 122.1 312.572 122.034C312.463 121.967 312.334 121.934 312.187 121.936C312.036 121.934 311.905 121.968 311.792 122.036C311.68 122.105 311.593 122.201 311.53 122.323C311.468 122.446 311.437 122.586 311.437 122.745ZM308.922 125.285C308.922 125.18 308.96 125.09 309.035 125.014C309.111 124.939 309.201 124.902 309.306 124.902C309.411 124.902 309.501 124.939 309.576 125.014C309.652 125.09 309.689 125.18 309.689 125.285C309.689 125.39 309.652 125.48 309.576 125.556C309.501 125.631 309.411 125.669 309.306 125.669C309.236 125.669 309.172 125.651 309.114 125.615C309.056 125.581 309.009 125.535 308.973 125.477C308.939 125.42 308.922 125.356 308.922 125.285ZM308.956 126.562L309.34 126.562L310.917 128.003C311.101 128.172 311.262 128.311 311.398 128.42C311.536 128.53 311.665 128.611 311.786 128.663C311.908 128.717 312.036 128.744 312.169 128.744C312.323 128.744 312.456 128.707 312.568 128.633C312.68 128.561 312.767 128.462 312.828 128.335C312.889 128.209 312.919 128.067 312.919 127.909C312.919 127.741 312.885 127.595 312.815 127.47C312.747 127.346 312.651 127.251 312.527 127.182C312.404 127.116 312.259 127.082 312.093 127.082L312.093 126.579C312.348 126.579 312.573 126.638 312.766 126.756C312.959 126.874 313.11 127.035 313.218 127.238C313.326 127.442 313.38 127.672 313.38 127.926C313.38 128.182 313.326 128.408 313.218 128.606C313.11 128.803 312.964 128.958 312.781 129.07C312.598 129.182 312.394 129.239 312.169 129.239C312.009 129.239 311.852 129.209 311.699 129.151C311.547 129.094 311.377 128.995 311.189 128.853C311.003 128.712 310.776 128.517 310.508 128.267L309.459 127.287L309.425 127.287L309.425 129.315L308.956 129.315L308.956 126.562ZM308.897 131.67C308.897 131.388 308.945 131.138 309.042 130.918C309.138 130.699 309.272 130.525 309.444 130.396C309.618 130.268 309.819 130.198 310.047 130.187L310.047 130.724C309.907 130.735 309.785 130.783 309.683 130.869C309.582 130.954 309.504 131.065 309.449 131.203C309.393 131.341 309.366 131.494 309.366 131.661C309.366 131.849 309.398 132.015 309.464 132.16C309.529 132.305 309.62 132.418 309.736 132.501C309.853 132.583 309.988 132.624 310.141 132.624C310.302 132.624 310.443 132.584 310.565 132.505C310.689 132.425 310.785 132.309 310.855 132.155C310.924 132.002 310.959 131.815 310.959 131.593L310.959 131.244L311.428 131.244L311.428 131.593C311.428 131.766 311.459 131.918 311.522 132.049C311.584 132.181 311.672 132.284 311.786 132.358C311.9 132.433 312.033 132.471 312.187 132.471C312.334 132.471 312.463 132.438 312.572 132.373C312.682 132.307 312.767 132.215 312.828 132.096C312.889 131.978 312.919 131.839 312.919 131.678C312.919 131.528 312.892 131.386 312.836 131.252C312.782 131.12 312.704 131.012 312.6 130.928C312.498 130.844 312.374 130.799 312.229 130.792L312.229 130.28C312.458 130.289 312.658 130.358 312.83 130.487C313.003 130.616 313.138 130.785 313.235 130.994C313.331 131.204 313.38 131.435 313.38 131.687C313.38 131.957 313.325 132.188 313.216 132.381C313.108 132.574 312.965 132.723 312.787 132.827C312.61 132.93 312.418 132.982 312.212 132.982C311.966 132.982 311.757 132.918 311.584 132.788C311.41 132.66 311.29 132.486 311.223 132.266L311.189 132.266C311.144 132.542 311.027 132.757 310.838 132.912C310.65 133.067 310.418 133.144 310.141 133.144C309.904 133.144 309.691 133.079 309.502 132.95C309.314 132.822 309.167 132.648 309.059 132.426C308.951 132.204 308.897 131.952 308.897 131.67Z" fill="black"/>
<path d="M353.272 119.006C353.272 118.685 353.359 118.412 353.534 118.186C353.71 117.96 353.965 117.787 354.299 117.668C354.634 117.549 355.039 117.489 355.514 117.489C355.985 117.489 356.388 117.549 356.722 117.668C357.057 117.789 357.313 117.962 357.489 118.188C357.666 118.415 357.755 118.688 357.755 119.006C357.755 119.324 357.666 119.596 357.489 119.822C357.313 120.05 357.057 120.223 356.722 120.342C356.388 120.463 355.985 120.523 355.514 120.523C355.039 120.523 354.634 120.464 354.299 120.344C353.965 120.225 353.71 120.052 353.534 119.827C353.359 119.601 353.272 119.327 353.272 119.006ZM353.741 119.006C353.741 119.324 353.894 119.572 354.201 119.748C354.508 119.924 354.945 120.012 355.514 120.012C355.891 120.012 356.213 119.971 356.479 119.89C356.744 119.811 356.947 119.696 357.086 119.545C357.225 119.396 357.295 119.216 357.295 119.006C357.295 118.691 357.139 118.444 356.828 118.267C356.519 118.089 356.08 118.001 355.514 118.001C355.136 118.001 354.815 118.04 354.55 118.12C354.286 118.199 354.085 118.314 353.947 118.463C353.81 118.613 353.741 118.795 353.741 119.006ZM357.755 122.722C357.754 122.901 357.72 123.08 357.653 123.259C357.586 123.438 357.475 123.601 357.32 123.749C357.167 123.897 356.957 124.015 356.692 124.105C356.426 124.194 356.093 124.239 355.693 124.239C355.305 124.239 354.96 124.202 354.659 124.128C354.359 124.056 354.107 123.951 353.901 123.813C353.695 123.677 353.538 123.51 353.432 123.314C353.325 123.12 353.272 122.9 353.272 122.654C353.272 122.41 353.32 122.192 353.417 122C353.515 121.809 353.651 121.653 353.824 121.531C353.999 121.41 354.201 121.333 354.431 121.299L354.431 121.819C354.231 121.866 354.065 121.959 353.935 122.098C353.805 122.238 353.741 122.424 353.741 122.654C353.741 122.991 353.888 123.256 354.182 123.451C354.476 123.647 354.891 123.745 355.428 123.745L355.428 123.711C355.309 123.631 355.206 123.537 355.119 123.427C355.033 123.318 354.966 123.197 354.919 123.063C354.872 122.93 354.849 122.787 354.849 122.637C354.849 122.387 354.911 122.157 355.034 121.949C355.159 121.741 355.33 121.575 355.548 121.45C355.766 121.327 356.016 121.265 356.298 121.265C356.565 121.265 356.809 121.324 357.031 121.444C357.254 121.564 357.431 121.733 357.563 121.951C357.695 122.17 357.759 122.427 357.755 122.722ZM357.286 122.722C357.286 122.543 357.242 122.382 357.152 122.238C357.064 122.096 356.945 121.983 356.794 121.9C356.645 121.817 356.479 121.776 356.298 121.776C356.116 121.776 355.95 121.816 355.801 121.895C355.653 121.976 355.536 122.086 355.447 122.226C355.361 122.366 355.318 122.526 355.318 122.705C355.318 122.84 355.344 122.966 355.396 123.082C355.45 123.199 355.523 123.3 355.616 123.387C355.71 123.475 355.815 123.544 355.933 123.594C356.053 123.643 356.177 123.668 356.306 123.668C356.477 123.668 356.636 123.627 356.786 123.545C356.935 123.464 357.055 123.351 357.148 123.208C357.24 123.066 357.286 122.904 357.286 122.722ZM353.298 125.3C353.298 125.195 353.335 125.104 353.411 125.029C353.486 124.954 353.576 124.916 353.681 124.916C353.786 124.916 353.876 124.954 353.952 125.029C354.027 125.104 354.065 125.195 354.065 125.3C354.065 125.405 354.027 125.495 353.952 125.57C353.876 125.646 353.786 125.683 353.681 125.683C353.612 125.683 353.548 125.665 353.489 125.63C353.431 125.596 353.384 125.55 353.349 125.491C353.315 125.435 353.298 125.371 353.298 125.3ZM353.332 126.577L353.715 126.577L355.292 128.017C355.477 128.186 355.637 128.326 355.773 128.435C355.911 128.544 356.041 128.625 356.161 128.678C356.283 128.732 356.411 128.759 356.545 128.759C356.698 128.759 356.831 128.722 356.943 128.648C357.055 128.576 357.142 128.476 357.203 128.35C357.264 128.223 357.295 128.081 357.295 127.924C357.295 127.756 357.26 127.61 357.19 127.485C357.122 127.361 357.026 127.265 356.903 127.197C356.779 127.13 356.634 127.097 356.468 127.097L356.468 126.594C356.724 126.594 356.948 126.653 357.141 126.771C357.335 126.889 357.485 127.049 357.593 127.252C357.701 127.457 357.755 127.686 357.755 127.941C357.755 128.196 357.701 128.423 357.593 128.62C357.485 128.818 357.34 128.973 357.156 129.085C356.973 129.197 356.769 129.253 356.545 129.253C356.384 129.253 356.227 129.224 356.074 129.166C355.922 129.109 355.752 129.01 355.565 128.868C355.379 128.727 355.151 128.532 354.883 128.282L353.835 127.301L353.8 127.301L353.8 129.33L353.332 129.33L353.332 126.577ZM353.272 131.684C353.272 131.403 353.32 131.152 353.417 130.932C353.514 130.713 353.648 130.539 353.82 130.41C353.993 130.282 354.194 130.213 354.423 130.201L354.423 130.738C354.282 130.75 354.161 130.798 354.058 130.883C353.957 130.968 353.879 131.08 353.824 131.218C353.769 131.355 353.741 131.508 353.741 131.676C353.741 131.863 353.773 132.029 353.839 132.174C353.904 132.319 353.995 132.433 354.112 132.515C354.228 132.598 354.363 132.639 354.516 132.639C354.677 132.639 354.818 132.599 354.94 132.52C355.064 132.44 355.161 132.324 355.23 132.17C355.3 132.017 355.335 131.829 355.335 131.608L355.335 131.258L355.803 131.258L355.803 131.608C355.803 131.781 355.835 131.933 355.897 132.064C355.96 132.196 356.048 132.299 356.161 132.373C356.275 132.448 356.408 132.485 356.562 132.485C356.71 132.485 356.838 132.453 356.947 132.387C357.057 132.322 357.142 132.23 357.203 132.11C357.264 131.993 357.295 131.853 357.295 131.693C357.295 131.542 357.267 131.4 357.212 131.267C357.158 131.135 357.079 131.027 356.975 130.943C356.873 130.859 356.749 130.814 356.604 130.806L356.604 130.295C356.833 130.304 357.033 130.373 357.205 130.502C357.379 130.631 357.514 130.8 357.61 131.009C357.707 131.219 357.755 131.45 357.755 131.701C357.755 131.971 357.7 132.203 357.591 132.396C357.483 132.589 357.34 132.738 357.163 132.841C356.985 132.945 356.793 132.997 356.587 132.997C356.342 132.997 356.132 132.932 355.959 132.803C355.786 132.675 355.666 132.501 355.599 132.281L355.565 132.281C355.519 132.556 355.402 132.772 355.213 132.926C355.026 133.081 354.793 133.159 354.516 133.159C354.279 133.159 354.066 133.094 353.877 132.965C353.69 132.837 353.542 132.662 353.434 132.441C353.326 132.219 353.272 131.967 353.272 131.684Z" fill="black"/>
<path d="M402.071 119.595L397.707 119.595L397.707 119.066L401.517 119.066L401.517 119.041L400.809 117.975L401.346 117.975L402.071 119.066L402.071 119.595ZM397.647 122.273C397.647 121.952 397.735 121.678 397.909 121.453C398.086 121.227 398.341 121.054 398.674 120.935C399.01 120.815 399.414 120.756 399.889 120.756C400.36 120.756 400.763 120.815 401.097 120.935C401.432 121.055 401.688 121.229 401.864 121.455C402.042 121.682 402.13 121.955 402.13 122.273C402.13 122.591 402.042 122.863 401.864 123.089C401.688 123.316 401.432 123.489 401.097 123.609C400.763 123.729 400.36 123.79 399.889 123.79C399.414 123.79 399.01 123.73 398.674 123.611C398.341 123.492 398.086 123.319 397.909 123.093C397.735 122.867 397.647 122.594 397.647 122.273ZM398.116 122.273C398.116 122.591 398.27 122.838 398.576 123.014C398.883 123.19 399.321 123.278 399.889 123.278C400.267 123.278 400.588 123.238 400.854 123.157C401.12 123.078 401.322 122.962 401.461 122.812C401.6 122.663 401.67 122.483 401.67 122.273C401.67 121.957 401.515 121.711 401.203 121.533C400.894 121.356 400.456 121.267 399.889 121.267C399.511 121.267 399.19 121.307 398.926 121.386C398.662 121.466 398.461 121.58 398.323 121.729C398.185 121.88 398.116 122.061 398.116 122.273ZM397.673 124.822C397.673 124.717 397.711 124.627 397.786 124.552C397.861 124.476 397.951 124.439 398.056 124.439C398.162 124.439 398.252 124.476 398.327 124.552C398.402 124.627 398.44 124.717 398.44 124.822C398.44 124.927 398.402 125.017 398.327 125.093C398.252 125.168 398.162 125.206 398.056 125.206C397.987 125.206 397.923 125.188 397.865 125.152C397.806 125.118 397.76 125.072 397.724 125.014C397.69 124.957 397.673 124.893 397.673 124.822ZM397.707 126.1L398.091 126.1L399.667 127.54C399.852 127.709 400.012 127.848 400.149 127.957C400.287 128.067 400.416 128.148 400.537 128.2C400.659 128.254 400.787 128.281 400.92 128.281C401.074 128.281 401.206 128.244 401.319 128.171C401.431 128.098 401.517 127.999 401.578 127.872C401.64 127.746 401.67 127.604 401.67 127.446C401.67 127.278 401.635 127.132 401.566 127.007C401.498 126.884 401.402 126.788 401.278 126.72C401.154 126.653 401.01 126.619 400.843 126.619L400.843 126.117C401.099 126.117 401.324 126.176 401.517 126.293C401.71 126.411 401.86 126.572 401.968 126.775C402.076 126.979 402.13 127.209 402.13 127.463C402.13 127.719 402.076 127.945 401.968 128.143C401.86 128.34 401.715 128.495 401.532 128.607C401.348 128.72 401.145 128.776 400.92 128.776C400.76 128.776 400.603 128.747 400.449 128.688C400.297 128.631 400.127 128.532 399.94 128.39C399.754 128.249 399.527 128.054 399.258 127.804L398.21 126.824L398.176 126.824L398.176 128.852L397.707 128.852L397.707 126.1ZM397.647 131.207C397.647 130.926 397.696 130.675 397.792 130.455C397.889 130.236 398.023 130.062 398.195 129.933C398.368 129.805 398.569 129.735 398.798 129.724L398.798 130.261C398.657 130.272 398.536 130.32 398.434 130.406C398.333 130.491 398.255 130.602 398.199 130.74C398.144 130.878 398.116 131.031 398.116 131.198C398.116 131.386 398.149 131.552 398.214 131.697C398.279 131.842 398.37 131.955 398.487 132.038C398.603 132.12 398.738 132.161 398.892 132.161C399.052 132.161 399.194 132.122 399.316 132.042C399.439 131.962 399.536 131.846 399.605 131.693C399.675 131.539 399.71 131.352 399.71 131.13L399.71 130.781L400.179 130.781L400.179 131.13C400.179 131.303 400.21 131.455 400.272 131.586C400.335 131.718 400.423 131.821 400.537 131.895C400.65 131.97 400.784 132.008 400.937 132.008C401.085 132.008 401.213 131.975 401.323 131.91C401.432 131.845 401.517 131.752 401.578 131.633C401.64 131.515 401.67 131.376 401.67 131.215C401.67 131.065 401.642 130.923 401.587 130.789C401.533 130.657 401.454 130.549 401.35 130.465C401.248 130.381 401.125 130.336 400.98 130.329L400.98 129.818C401.208 129.826 401.409 129.895 401.581 130.024C401.754 130.153 401.889 130.323 401.985 130.531C402.082 130.742 402.13 130.972 402.13 131.224C402.13 131.494 402.076 131.725 401.966 131.918C401.858 132.112 401.716 132.26 401.538 132.364C401.36 132.467 401.169 132.519 400.963 132.519C400.717 132.519 400.507 132.455 400.334 132.325C400.161 132.198 400.041 132.024 399.974 131.803L399.94 131.803C399.895 132.079 399.777 132.294 399.588 132.449C399.401 132.604 399.169 132.681 398.892 132.681C398.654 132.681 398.441 132.617 398.252 132.487C398.065 132.359 397.917 132.185 397.809 131.963C397.701 131.742 397.647 131.489 397.647 131.207Z" fill="black"/>
<path d="M446.446 120.128L442.082 120.128L442.082 119.599L445.892 119.599L445.892 119.574L445.185 118.508L445.722 118.508L446.446 119.599L446.446 120.128ZM446.446 122.917L442.082 122.917L442.082 122.388L445.892 122.388L445.892 122.363L445.185 121.297L445.722 121.297L446.446 122.388L446.446 122.917ZM442.048 124.289C442.048 124.184 442.086 124.094 442.161 124.018C442.236 123.943 442.327 123.905 442.432 123.905C442.537 123.905 442.627 123.943 442.702 124.018C442.778 124.094 442.815 124.184 442.815 124.289C442.815 124.394 442.778 124.484 442.702 124.56C442.627 124.635 442.537 124.672 442.432 124.672C442.362 124.672 442.298 124.655 442.24 124.619C442.182 124.585 442.135 124.539 442.099 124.481C442.065 124.424 442.048 124.36 442.048 124.289ZM442.082 125.566L442.466 125.566L444.043 127.007C444.227 127.176 444.388 127.315 444.524 127.424C444.662 127.534 444.791 127.615 444.912 127.667C445.034 127.721 445.162 127.748 445.295 127.748C445.449 127.748 445.582 127.711 445.694 127.637C445.806 127.565 445.893 127.465 445.954 127.339C446.015 127.213 446.045 127.071 446.045 126.913C446.045 126.745 446.011 126.599 445.941 126.474C445.873 126.35 445.777 126.255 445.653 126.186C445.53 126.12 445.385 126.086 445.219 126.086L445.219 125.583C445.474 125.583 445.699 125.642 445.892 125.76C446.085 125.878 446.236 126.039 446.344 126.242C446.452 126.446 446.506 126.676 446.506 126.93C446.506 127.186 446.452 127.412 446.344 127.61C446.236 127.807 446.09 127.962 445.907 128.074C445.724 128.186 445.52 128.242 445.295 128.242C445.135 128.242 444.978 128.213 444.825 128.155C444.673 128.098 444.503 127.999 444.315 127.857C444.129 127.716 443.902 127.521 443.633 127.271L442.585 126.291L442.551 126.291L442.551 128.319L442.082 128.319L442.082 125.566ZM442.023 130.674C442.023 130.392 442.071 130.142 442.168 129.921C442.264 129.703 442.398 129.529 442.57 129.399C442.744 129.272 442.945 129.202 443.173 129.191L443.173 129.728C443.033 129.739 442.911 129.787 442.809 129.872C442.708 129.958 442.63 130.069 442.575 130.207C442.519 130.345 442.491 130.497 442.491 130.665C442.491 130.853 442.524 131.019 442.589 131.164C442.655 131.309 442.746 131.422 442.862 131.505C442.979 131.587 443.114 131.628 443.267 131.628C443.428 131.628 443.569 131.588 443.691 131.509C443.815 131.429 443.911 131.313 443.981 131.159C444.05 131.006 444.085 130.818 444.085 130.597L444.085 130.247L444.554 130.247L444.554 130.597C444.554 130.77 444.585 130.922 444.648 131.053C444.71 131.185 444.798 131.288 444.912 131.362C445.026 131.437 445.159 131.475 445.312 131.475C445.46 131.475 445.589 131.442 445.698 131.377C445.807 131.311 445.893 131.219 445.954 131.1C446.015 130.982 446.045 130.843 446.045 130.682C446.045 130.532 446.018 130.389 445.962 130.256C445.908 130.124 445.829 130.016 445.726 129.932C445.624 129.848 445.5 129.803 445.355 129.796L445.355 129.284C445.584 129.293 445.784 129.362 445.956 129.491C446.129 129.62 446.264 129.789 446.361 129.998C446.457 130.208 446.506 130.439 446.506 130.691C446.506 130.96 446.451 131.192 446.342 131.385C446.234 131.578 446.091 131.727 445.913 131.831C445.736 131.934 445.544 131.986 445.338 131.986C445.092 131.986 444.883 131.921 444.709 131.792C444.536 131.664 444.416 131.49 444.349 131.27L444.315 131.27C444.27 131.546 444.153 131.761 443.964 131.916C443.776 132.071 443.544 132.148 443.267 132.148C443.03 132.148 442.817 132.083 442.628 131.954C442.44 131.826 442.293 131.652 442.185 131.43C442.077 131.208 442.023 130.956 442.023 130.674Z" fill="black"/>
<path d="M87.9576 114.57V110.55" stroke="black"/>
<path d="M132.42 114.57V110.55" stroke="black"/>
<path d="M176.882 114.57V110.55" stroke="black"/>
<path d="M221.344 114.57V110.55" stroke="black"/>
<path d="M265.806 114.57V110.55" stroke="black"/>
<path d="M310.268 114.57V110.55" stroke="black"/>
<path d="M354.73 114.57V110.55" stroke="black"/>
<path d="M399.192 114.57V110.55" stroke="black"/>
<path d="M443.654 114.57V110.55" stroke="black"/>
<path d="M43.4955 3.34998V110.55" stroke="black"/>
<path d="M39.4805 110.55H43.4955" stroke="black"/>
<path d="M34.2597 111.424C33.9387 111.424 33.6653 111.336 33.4394 111.162C33.2136 110.986 33.041 110.731 32.9217 110.397C32.8023 110.062 32.7427 109.657 32.7427 109.182C32.7427 108.711 32.8023 108.308 32.9217 107.974C33.0424 107.639 33.2157 107.383 33.4415 107.207C33.6688 107.03 33.9415 106.941 34.2597 106.941C34.5779 106.941 34.8499 107.03 35.0758 107.207C35.3031 107.383 35.4763 107.639 35.5957 107.974C35.7164 108.308 35.7768 108.711 35.7768 109.182C35.7768 109.657 35.7171 110.062 35.5978 110.397C35.4785 110.731 35.3059 110.986 35.08 111.162C34.8542 111.336 34.5808 111.424 34.2597 111.424ZM34.2597 110.955C34.5779 110.955 34.8251 110.802 35.0012 110.495C35.1773 110.188 35.2654 109.751 35.2654 109.182C35.2654 108.805 35.2249 108.483 35.144 108.217C35.0644 107.952 34.9494 107.749 34.7988 107.61C34.6496 107.471 34.47 107.401 34.2597 107.401C33.9444 107.401 33.6979 107.557 33.5204 107.868C33.3428 108.177 33.254 108.616 33.254 109.182C33.254 109.56 33.2938 109.881 33.3734 110.145C33.4529 110.41 33.5673 110.611 33.7164 110.748C33.867 110.886 34.0481 110.955 34.2597 110.955Z" fill="black"/>
<path d="M39.4805 83.75H43.4955" stroke="black"/>
<path d="M25.5532 84.5642V84.1807L26.9936 82.604C27.1626 82.4193 27.3018 82.2588 27.4112 82.1224C27.5206 81.9847 27.6015 81.8554 27.6541 81.7347C27.7081 81.6125 27.7351 81.4847 27.7351 81.3511C27.7351 81.1977 27.6981 81.0649 27.6243 80.9527C27.5518 80.8405 27.4524 80.7538 27.326 80.6928C27.1995 80.6317 27.0575 80.6011 26.8998 80.6011C26.7322 80.6011 26.5859 80.6359 26.4609 80.7055C26.3373 80.7737 26.2414 80.8696 26.1733 80.9932C26.1065 81.1168 26.0731 81.2617 26.0731 81.4278H25.5703C25.5703 81.1722 25.6292 80.9477 25.7471 80.7545C25.865 80.5614 26.0255 80.4108 26.2287 80.3028C26.4332 80.1949 26.6626 80.1409 26.9169 80.1409C27.1725 80.1409 27.3991 80.1949 27.5966 80.3028C27.794 80.4108 27.9488 80.5564 28.061 80.7396C28.1733 80.9229 28.2294 81.1267 28.2294 81.3511C28.2294 81.5117 28.2002 81.6686 28.142 81.822C28.0852 81.974 27.9858 82.1438 27.8437 82.3313C27.7031 82.5173 27.5078 82.7446 27.2578 83.0131L26.2777 84.0614V84.0955H28.3061V84.5642H25.5532ZM30.5497 84.6239C30.2997 84.6239 30.0745 84.5742 29.8743 84.4747C29.674 84.3753 29.5135 84.2389 29.3927 84.0656C29.272 83.8923 29.2059 83.6949 29.1946 83.4733H29.7059C29.7258 83.6707 29.8153 83.8341 29.9744 83.9634C30.1349 84.0912 30.3267 84.1551 30.5497 84.1551C30.7287 84.1551 30.8877 84.1132 31.027 84.0294C31.1676 83.9456 31.2777 83.8305 31.3572 83.6842C31.4382 83.5365 31.4787 83.3696 31.4787 83.1835C31.4787 82.9932 31.4368 82.8234 31.3529 82.6743C31.2706 82.5237 31.1569 82.4051 31.012 82.3185C30.8672 82.2318 30.7017 82.1878 30.5156 82.1864C30.3821 82.1849 30.245 82.2055 30.1044 82.2482C29.9637 82.2894 29.848 82.3426 29.7571 82.408L29.2627 82.3483L29.527 80.2006H31.794V80.6693H29.9701L29.8167 81.9563H29.8423C29.9318 81.8852 30.044 81.8263 30.1789 81.7794C30.3139 81.7325 30.4545 81.7091 30.6008 81.7091C30.8679 81.7091 31.1058 81.773 31.3146 81.9009C31.5248 82.0273 31.6896 82.2006 31.8089 82.4207C31.9297 82.6409 31.99 82.8923 31.99 83.175C31.99 83.4534 31.9275 83.702 31.8025 83.9207C31.6789 84.1381 31.5085 84.3099 31.2912 84.4364C31.0738 84.5614 30.8267 84.6239 30.5497 84.6239ZM34.2597 84.6239C33.9387 84.6239 33.6653 84.5365 33.4394 84.3618C33.2136 84.1857 33.041 83.9307 32.9217 83.5969C32.8023 83.2617 32.7427 82.8568 32.7427 82.3824C32.7427 81.9108 32.8023 81.5081 32.9217 81.1743C33.0424 80.8391 33.2157 80.5834 33.4415 80.4072C33.6688 80.2297 33.9415 80.1409 34.2597 80.1409C34.5779 80.1409 34.8499 80.2297 35.0758 80.4072C35.3031 80.5834 35.4763 80.8391 35.5957 81.1743C35.7164 81.5081 35.7768 81.9108 35.7768 82.3824C35.7768 82.8568 35.7171 83.2617 35.5978 83.5969C35.4785 83.9307 35.3059 84.1857 35.08 84.3618C34.8542 84.5365 34.5808 84.6239 34.2597 84.6239ZM34.2597 84.1551C34.5779 84.1551 34.8251 84.0017 35.0012 83.6949C35.1773 83.3881 35.2654 82.9506 35.2654 82.3824C35.2654 82.0045 35.2249 81.6828 35.144 81.4172C35.0644 81.1516 34.9494 80.9492 34.7988 80.8099C34.6496 80.6707 34.47 80.6011 34.2597 80.6011C33.9444 80.6011 33.6979 80.7567 33.5204 81.0678C33.3428 81.3774 33.254 81.8156 33.254 82.3824C33.254 82.7602 33.2938 83.0813 33.3734 83.3455C33.4529 83.6097 33.5673 83.8107 33.7164 83.9484C33.867 84.0862 34.0481 84.1551 34.2597 84.1551Z" fill="black"/>
<path d="M39.4805 56.95H43.4955" stroke="black"/>
<path d="M26.7997 57.8238C26.5497 57.8238 26.3245 57.7741 26.1243 57.6747C25.924 57.5752 25.7635 57.4389 25.6427 57.2656C25.522 57.0923 25.4559 56.8948 25.4446 56.6733H25.9559C25.9758 56.8707 26.0653 57.034 26.2244 57.1633C26.3849 57.2911 26.5767 57.3551 26.7997 57.3551C26.9787 57.3551 27.1377 57.3132 27.277 57.2294C27.4176 57.1456 27.5277 57.0305 27.6072 56.8842C27.6882 56.7365 27.7287 56.5696 27.7287 56.3835C27.7287 56.1931 27.6868 56.0234 27.6029 55.8742C27.5206 55.7237 27.4069 55.6051 27.262 55.5184C27.1172 55.4318 26.9517 55.3877 26.7656 55.3863C26.6321 55.3849 26.495 55.4055 26.3544 55.4481C26.2137 55.4893 26.098 55.5426 26.0071 55.6079L25.5127 55.5483L25.777 53.4005H28.044V53.8693H26.2201L26.0667 55.1562H26.0923C26.1818 55.0852 26.294 55.0262 26.4289 54.9794C26.5639 54.9325 26.7045 54.909 26.8508 54.909C27.1179 54.909 27.3558 54.973 27.5646 55.1008C27.7748 55.2272 27.9396 55.4005 28.0589 55.6207C28.1797 55.8409 28.24 56.0923 28.24 56.375C28.24 56.6534 28.1775 56.9019 28.0525 57.1207C27.9289 57.338 27.7585 57.5099 27.5412 57.6363C27.3238 57.7613 27.0767 57.8238 26.7997 57.8238ZM30.5097 57.8238C30.1887 57.8238 29.9153 57.7365 29.6894 57.5617C29.4636 57.3856 29.291 57.1306 29.1717 56.7968C29.0523 56.4616 28.9927 56.0568 28.9927 55.5823C28.9927 55.1108 29.0523 54.7081 29.1717 54.3742C29.2924 54.039 29.4657 53.7833 29.6915 53.6072C29.9188 53.4296 30.1915 53.3409 30.5097 53.3409C30.8279 53.3409 31.0999 53.4296 31.3258 53.6072C31.5531 53.7833 31.7263 54.039 31.8457 54.3742C31.9664 54.7081 32.0268 55.1108 32.0268 55.5823C32.0268 56.0568 31.9671 56.4616 31.8478 56.7968C31.7285 57.1306 31.5559 57.3856 31.33 57.5617C31.1042 57.7365 30.8308 57.8238 30.5097 57.8238ZM30.5097 57.3551C30.8279 57.3551 31.0751 57.2017 31.2512 56.8948C31.4273 56.588 31.5154 56.1505 31.5154 55.5823C31.5154 55.2045 31.4749 54.8828 31.394 54.6171C31.3144 54.3515 31.1994 54.1491 31.0488 54.0099C30.8996 53.8707 30.72 53.8011 30.5097 53.8011C30.1944 53.8011 29.9479 53.9566 29.7704 54.2677C29.5928 54.5774 29.504 55.0156 29.504 55.5823C29.504 55.9602 29.5438 56.2812 29.6234 56.5454C29.7029 56.8096 29.8173 57.0106 29.9664 57.1484C30.117 57.2862 30.2981 57.3551 30.5097 57.3551ZM34.2597 57.8238C33.9387 57.8238 33.6653 57.7365 33.4394 57.5617C33.2136 57.3856 33.041 57.1306 32.9217 56.7968C32.8023 56.4616 32.7427 56.0568 32.7427 55.5823C32.7427 55.1108 32.8023 54.7081 32.9217 54.3742C33.0424 54.039 33.2157 53.7833 33.4415 53.6072C33.6688 53.4296 33.9415 53.3409 34.2597 53.3409C34.5779 53.3409 34.8499 53.4296 35.0758 53.6072C35.3031 53.7833 35.4763 54.039 35.5957 54.3742C35.7164 54.7081 35.7768 55.1108 35.7768 55.5823C35.7768 56.0568 35.7171 56.4616 35.5978 56.7968C35.4785 57.1306 35.3059 57.3856 35.08 57.5617C34.8542 57.7365 34.5808 57.8238 34.2597 57.8238ZM34.2597 57.3551C34.5779 57.3551 34.8251 57.2017 35.0012 56.8948C35.1773 56.588 35.2654 56.1505 35.2654 55.5823C35.2654 55.2045 35.2249 54.8828 35.144 54.6171C35.0644 54.3515 34.9494 54.1491 34.7988 54.0099C34.6496 53.8707 34.47 53.8011 34.2597 53.8011C33.9444 53.8011 33.6979 53.9566 33.5204 54.2677C33.3428 54.5774 33.254 55.0156 33.254 55.5823C33.254 55.9602 33.2938 56.2812 33.3734 56.5454C33.4529 56.8096 33.5673 57.0106 33.7164 57.1484C33.867 57.2862 34.0481 57.3551 34.2597 57.3551Z" fill="black"/>
<path d="M39.4805 30.15H43.4955" stroke="black"/>
<path d="M25.9533 30.9642L27.905 27.1034V27.0693H25.655V26.6005H28.4504V27.0949L26.5072 30.9642H25.9533ZM30.5497 31.0238C30.2997 31.0238 30.0745 30.9741 29.8743 30.8747C29.674 30.7753 29.5135 30.6389 29.3927 30.4656C29.272 30.2923 29.2059 30.0949 29.1946 29.8733H29.7059C29.7258 30.0707 29.8153 30.2341 29.9744 30.3633C30.1349 30.4912 30.3267 30.5551 30.5497 30.5551C30.7287 30.5551 30.8877 30.5132 31.027 30.4294C31.1676 30.3456 31.2777 30.2305 31.3572 30.0842C31.4382 29.9365 31.4787 29.7696 31.4787 29.5835C31.4787 29.3931 31.4368 29.2234 31.3529 29.0743C31.2706 28.9237 31.1569 28.8051 31.012 28.7184C30.8672 28.6318 30.7017 28.5878 30.5156 28.5863C30.3821 28.5849 30.245 28.6055 30.1044 28.6481C29.9637 28.6893 29.848 28.7426 29.7571 28.8079L29.2627 28.7483L29.527 26.6005H31.794V27.0693H29.9701L29.8167 28.3562H29.8423C29.9318 28.2852 30.044 28.2262 30.1789 28.1794C30.3139 28.1325 30.4545 28.1091 30.6008 28.1091C30.8679 28.1091 31.1058 28.173 31.3146 28.3008C31.5248 28.4272 31.6896 28.6005 31.8089 28.8207C31.9297 29.0409 31.99 29.2923 31.99 29.575C31.99 29.8534 31.9275 30.102 31.8025 30.3207C31.6789 30.538 31.5085 30.7099 31.2912 30.8363C31.0738 30.9613 30.8267 31.0238 30.5497 31.0238ZM34.2597 31.0238C33.9387 31.0238 33.6653 30.9365 33.4394 30.7618C33.2136 30.5856 33.041 30.3306 32.9217 29.9968C32.8023 29.6616 32.7427 29.2568 32.7427 28.7824C32.7427 28.3108 32.8023 27.9081 32.9217 27.5743C33.0424 27.239 33.2157 26.9833 33.4415 26.8072C33.6688 26.6297 33.9415 26.5409 34.2597 26.5409C34.5779 26.5409 34.8499 26.6297 35.0758 26.8072C35.3031 26.9833 35.4763 27.239 35.5957 27.5743C35.7164 27.9081 35.7768 28.3108 35.7768 28.7824C35.7768 29.2568 35.7171 29.6616 35.5978 29.9968C35.4785 30.3306 35.3059 30.5856 35.08 30.7618C34.8542 30.9365 34.5808 31.0238 34.2597 31.0238ZM34.2597 30.5551C34.5779 30.5551 34.8251 30.4017 35.0012 30.0949C35.1773 29.788 35.2654 29.3505 35.2654 28.7824C35.2654 28.4045 35.2249 28.0828 35.144 27.8172C35.0644 27.5515 34.9494 27.3491 34.7988 27.2099C34.6496 27.0707 34.47 27.0011 34.2597 27.0011C33.9444 27.0011 33.6979 27.1566 33.5204 27.4677C33.3428 27.7774 33.254 28.2156 33.254 28.7824C33.254 29.1602 33.2938 29.4812 33.3734 29.7454C33.4529 30.0096 33.5673 30.2106 33.7164 30.3484C33.867 30.4862 34.0481 30.5551 34.2597 30.5551Z" fill="black"/>
<path d="M39.4805 3.34998H43.4955" stroke="black"/>
<path d="M24.0815 2.6114V6.97504H23.5531V3.16538H23.5275L22.4621 3.87276V3.33583L23.5531 2.6114H24.0815ZM26.7597 7.0347C26.4387 7.0347 26.1653 6.94734 25.9394 6.77262C25.7136 6.59649 25.541 6.34151 25.4217 6.00771C25.3023 5.67248 25.2427 5.26765 25.2427 4.79322C25.2427 4.32163 25.3023 3.91893 25.4217 3.58512C25.5424 3.24989 25.7157 2.99421 25.9415 2.81808C26.1688 2.64052 26.4415 2.55174 26.7597 2.55174C27.0779 2.55174 27.3499 2.64052 27.5758 2.81808C27.8031 2.99421 27.9763 3.24989 28.0957 3.58512C28.2164 3.91893 28.2768 4.32163 28.2768 4.79322C28.2768 5.26765 28.2171 5.67248 28.0978 6.00771C27.9785 6.34151 27.8059 6.59649 27.58 6.77262C27.3542 6.94734 27.0808 7.0347 26.7597 7.0347ZM26.7597 6.56595C27.0779 6.56595 27.3251 6.41254 27.5012 6.10572C27.6773 5.7989 27.7654 5.3614 27.7654 4.79322C27.7654 4.41538 27.7249 4.09364 27.644 3.82802C27.5644 3.56239 27.4494 3.35998 27.2988 3.22078C27.1496 3.08157 26.97 3.01197 26.7597 3.01197C26.4444 3.01197 26.1979 3.16751 26.0204 3.47859C25.8428 3.78825 25.754 4.22646 25.754 4.79322C25.754 5.17106 25.7938 5.49208 25.8734 5.75629C25.9529 6.02049 26.0673 6.22149 26.2164 6.35927C26.367 6.49705 26.5481 6.56595 26.7597 6.56595ZM30.5097 7.0347C30.1887 7.0347 29.9153 6.94734 29.6894 6.77262C29.4636 6.59649 29.291 6.34151 29.1717 6.00771C29.0523 5.67248 28.9927 5.26765 28.9927 4.79322C28.9927 4.32163 29.0523 3.91893 29.1717 3.58512C29.2924 3.24989 29.4657 2.99421 29.6915 2.81808C29.9188 2.64052 30.1915 2.55174 30.5097 2.55174C30.8279 2.55174 31.0999 2.64052 31.3258 2.81808C31.5531 2.99421 31.7263 3.24989 31.8457 3.58512C31.9664 3.91893 32.0268 4.32163 32.0268 4.79322C32.0268 5.26765 31.9671 5.67248 31.8478 6.00771C31.7285 6.34151 31.5559 6.59649 31.33 6.77262C31.1042 6.94734 30.8308 7.0347 30.5097 7.0347ZM30.5097 6.56595C30.8279 6.56595 31.0751 6.41254 31.2512 6.10572C31.4273 5.7989 31.5154 5.3614 31.5154 4.79322C31.5154 4.41538 31.4749 4.09364 31.394 3.82802C31.3144 3.56239 31.1994 3.35998 31.0488 3.22078C30.8996 3.08157 30.72 3.01197 30.5097 3.01197C30.1944 3.01197 29.9479 3.16751 29.7704 3.47859C29.5928 3.78825 29.504 4.22646 29.504 4.79322C29.504 5.17106 29.5438 5.49208 29.6234 5.75629C29.7029 6.02049 29.8173 6.22149 29.9664 6.35927C30.117 6.49705 30.2981 6.56595 30.5097 6.56595ZM34.2597 7.0347C33.9387 7.0347 33.6653 6.94734 33.4394 6.77262C33.2136 6.59649 33.041 6.34151 32.9217 6.00771C32.8023 5.67248 32.7427 5.26765 32.7427 4.79322C32.7427 4.32163 32.8023 3.91893 32.9217 3.58512C33.0424 3.24989 33.2157 2.99421 33.4415 2.81808C33.6688 2.64052 33.9415 2.55174 34.2597 2.55174C34.5779 2.55174 34.8499 2.64052 35.0758 2.81808C35.3031 2.99421 35.4763 3.24989 35.5957 3.58512C35.7164 3.91893 35.7768 4.32163 35.7768 4.79322C35.7768 5.26765 35.7171 5.67248 35.5978 6.00771C35.4785 6.34151 35.3059 6.59649 35.08 6.77262C34.8542 6.94734 34.5808 7.0347 34.2597 7.0347ZM34.2597 6.56595C34.5779 6.56595 34.8251 6.41254 35.0012 6.10572C35.1773 5.7989 35.2654 5.3614 35.2654 4.79322C35.2654 4.41538 35.2249 4.09364 35.144 3.82802C35.0644 3.56239 34.9494 3.35998 34.7988 3.22078C34.6496 3.08157 34.47 3.01197 34.2597 3.01197C33.9444 3.01197 33.6979 3.16751 33.5204 3.47859C33.3428 3.78825 33.254 4.22646 33.254 4.79322C33.254 5.17106 33.2938 5.49208 33.3734 5.75629C33.4529 6.02049 33.5673 6.22149 33.7164 6.35927C33.867 6.49705 34.0481 6.56595 34.2597 6.56595Z" fill="black"/>
<path d="M43.4955 110.55H443.654" stroke="#CCCCCC"/>
<path d="M43.4955 83.75H443.654" stroke="#CCCCCC"/>
<path d="M43.4955 56.95H443.654" stroke="#CCCCCC"/>
<path d="M43.4955 30.15H443.654" stroke="#CCCCCC"/>
<path d="M43.4955 3.34998H443.654" stroke="#CCCCCC"/>
<path d="M43.4955 3.34998V110.55" stroke="#CCCCCC"/>
<path d="M87.9576 3.34998V110.55" stroke="#CCCCCC"/>
<path d="M132.42 3.34998V110.55" stroke="#CCCCCC"/>
<path d="M176.882 3.34998V110.55" stroke="#CCCCCC"/>
<path d="M221.344 3.34998V110.55" stroke="#CCCCCC"/>
<path d="M265.806 3.34998V110.55" stroke="#CCCCCC"/>
<path d="M310.268 3.34998V110.55" stroke="#CCCCCC"/>
<path d="M354.73 3.34998V110.55" stroke="#CCCCCC"/>
<path d="M399.192 3.34998V110.55" stroke="#CCCCCC"/>
<path d="M443.654 3.34998V110.55" stroke="#CCCCCC"/>
<path d="M43.4955 37.0108L87.9576 75.0668L132.42 26.7196L176.882 69.5996L221.344 58.6652L265.806 27.3628L310.268 48.6956L354.73 23.718L399.192 40.9772L443.654 94.7916V110.55H399.192H354.73H310.268H265.806H221.344H176.882H132.42H87.9576H43.4955V37.0108Z" fill="#FDD985"/>
<path d="M43.4955 39.0208C44.6042 39.0208 45.503 38.1209 45.503 37.0108C45.503 35.9007 44.6042 35.0008 43.4955 35.0008C42.3868 35.0008 41.488 35.9007 41.488 37.0108C41.488 38.1209 42.3868 39.0208 43.4955 39.0208Z" fill="#FDD985"/>
<path d="M87.9576 77.0768C89.0663 77.0768 89.9651 76.1769 89.9651 75.0668C89.9651 73.9567 89.0663 73.0568 87.9576 73.0568C86.8489 73.0568 85.9501 73.9567 85.9501 75.0668C85.9501 76.1769 86.8489 77.0768 87.9576 77.0768Z" fill="#FDD985"/>
<path d="M132.42 28.7296C133.528 28.7296 134.427 27.8297 134.427 26.7196C134.427 25.6095 133.528 24.7096 132.42 24.7096C131.311 24.7096 130.412 25.6095 130.412 26.7196C130.412 27.8297 131.311 28.7296 132.42 28.7296Z" fill="#FDD985"/>
<path d="M176.882 71.6096C177.99 71.6096 178.889 70.7097 178.889 69.5996C178.889 68.4895 177.99 67.5896 176.882 67.5896C175.773 67.5896 174.874 68.4895 174.874 69.5996C174.874 70.7097 175.773 71.6096 176.882 71.6096Z" fill="#FDD985"/>
<path d="M221.344 60.6752C222.453 60.6752 223.351 59.7753 223.351 58.6652C223.351 57.5551 222.453 56.6552 221.344 56.6552C220.235 56.6552 219.336 57.5551 219.336 58.6652C219.336 59.7753 220.235 60.6752 221.344 60.6752Z" fill="#FDD985"/>
<path d="M265.806 29.3728C266.915 29.3728 267.813 28.4729 267.813 27.3628C267.813 26.2527 266.915 25.3528 265.806 25.3528C264.697 25.3528 263.798 26.2527 263.798 27.3628C263.798 28.4729 264.697 29.3728 265.806 29.3728Z" fill="#FDD985"/>
<path d="M310.268 50.7056C311.377 50.7056 312.275 49.8057 312.275 48.6956C312.275 47.5855 311.377 46.6856 310.268 46.6856C309.159 46.6856 308.26 47.5855 308.26 48.6956C308.26 49.8057 309.159 50.7056 310.268 50.7056Z" fill="#FDD985"/>
<path d="M354.73 25.728C355.839 25.728 356.738 24.8281 356.738 23.718C356.738 22.6079 355.839 21.708 354.73 21.708C353.621 21.708 352.723 22.6079 352.723 23.718C352.723 24.8281 353.621 25.728 354.73 25.728Z" fill="#FDD985"/>
<path d="M399.192 42.9872C400.301 42.9872 401.2 42.0873 401.2 40.9772C401.2 39.8671 400.301 38.9672 399.192 38.9672C398.083 38.9672 397.185 39.8671 397.185 40.9772C397.185 42.0873 398.083 42.9872 399.192 42.9872Z" fill="#FDD985"/>
<path d="M443.654 96.8016C444.763 96.8016 445.662 95.9017 445.662 94.7916C445.662 93.6815 444.763 92.7816 443.654 92.7816C442.546 92.7816 441.647 93.6815 441.647 94.7916C441.647 95.9017 442.546 96.8016 443.654 96.8016Z" fill="#FDD985"/>
<path d="M43.4955 46.3372L87.9576 16.4284L132.42 17.1788L176.882 18.894L221.344 63.1676L265.806 101.652L310.268 101.438L354.73 45.694L399.192 52.2332L443.654 13.2124V110.55H399.192H354.73H310.268H265.806H221.344H176.882H132.42H87.9576H43.4955V46.3372Z" fill="#EC5589" fill-opacity="0.3"/>
<path d="M43.4955 48.3472C44.6042 48.3472 45.503 47.4473 45.503 46.3372C45.503 45.2271 44.6042 44.3272 43.4955 44.3272C42.3868 44.3272 41.488 45.2271 41.488 46.3372C41.488 47.4473 42.3868 48.3472 43.4955 48.3472Z" fill="#EC5589" fill-opacity="0.3"/>
<path d="M87.9576 18.4384C89.0663 18.4384 89.9651 17.5385 89.9651 16.4284C89.9651 15.3183 89.0663 14.4184 87.9576 14.4184C86.8489 14.4184 85.9501 15.3183 85.9501 16.4284C85.9501 17.5385 86.8489 18.4384 87.9576 18.4384Z" fill="#EC5589" fill-opacity="0.3"/>
<path d="M132.42 19.1888C133.528 19.1888 134.427 18.2889 134.427 17.1788C134.427 16.0687 133.528 15.1688 132.42 15.1688C131.311 15.1688 130.412 16.0687 130.412 17.1788C130.412 18.2889 131.311 19.1888 132.42 19.1888Z" fill="#EC5589" fill-opacity="0.3"/>
<path d="M176.882 20.904C177.99 20.904 178.889 20.0041 178.889 18.894C178.889 17.7839 177.99 16.884 176.882 16.884C175.773 16.884 174.874 17.7839 174.874 18.894C174.874 20.0041 175.773 20.904 176.882 20.904Z" fill="#EC5589" fill-opacity="0.3"/>
<path d="M221.344 65.1776C222.453 65.1776 223.351 64.2777 223.351 63.1676C223.351 62.0575 222.453 61.1576 221.344 61.1576C220.235 61.1576 219.336 62.0575 219.336 63.1676C219.336 64.2777 220.235 65.1776 221.344 65.1776Z" fill="#EC5589" fill-opacity="0.3"/>
<path d="M265.806 103.662C266.915 103.662 267.813 102.762 267.813 101.652C267.813 100.542 266.915 99.6424 265.806 99.6424C264.697 99.6424 263.798 100.542 263.798 101.652C263.798 102.762 264.697 103.662 265.806 103.662Z" fill="#EC5589" fill-opacity="0.3"/>
<path d="M310.268 103.448C311.377 103.448 312.275 102.548 312.275 101.438C312.275 100.328 311.377 99.428 310.268 99.428C309.159 99.428 308.26 100.328 308.26 101.438C308.26 102.548 309.159 103.448 310.268 103.448Z" fill="#EC5589" fill-opacity="0.3"/>
<path d="M354.73 47.704C355.839 47.704 356.738 46.8041 356.738 45.694C356.738 44.5839 355.839 43.684 354.73 43.684C353.621 43.684 352.723 44.5839 352.723 45.694C352.723 46.8041 353.621 47.704 354.73 47.704Z" fill="#EC5589" fill-opacity="0.3"/>
<path d="M399.192 54.2432C400.301 54.2432 401.2 53.3433 401.2 52.2332C401.2 51.1231 400.301 50.2232 399.192 50.2232C398.083 50.2232 397.185 51.1231 397.185 52.2332C397.185 53.3433 398.083 54.2432 399.192 54.2432Z" fill="#EC5589" fill-opacity="0.3"/>
<path d="M443.654 15.2224C444.763 15.2224 445.662 14.3225 445.662 13.2124C445.662 12.1023 444.763 11.2024 443.654 11.2024C442.546 11.2024 441.647 12.1023 441.647 13.2124C441.647 14.3225 442.546 15.2224 443.654 15.2224Z" fill="#EC5589" fill-opacity="0.3"/>
</g>
<defs>
<clipPath id="clip0_1_4329">
<rect width="447" height="134" fill="white"/>
</clipPath>
</defs>
</svg>
