<svg width="115" height="130" viewBox="0 0 115 130" fill="none" xmlns="http://www.w3.org/2000/svg">
<path d="M109.494 61.7501C109.494 54.0151 107.823 46.3714 104.597 39.3415C101.37 32.3116 96.6637 26.0614 90.7989 21.0182C84.9341 15.975 78.0494 12.2577 70.6156 10.1207C63.1817 7.98356 55.374 7.47701 47.7263 8.63563L55.7731 61.7501H109.494Z" fill="#FDD985" stroke="white"/>
<path d="M47.7263 8.63562C38.938 9.96704 30.6174 13.4583 23.5103 18.7965C16.4033 24.1347 10.7318 31.1529 7.00436 39.2222L55.7731 61.75L47.7263 8.63562Z" fill="#EC5589" stroke="white"/>
<path d="M7.00437 39.2222C3.63526 46.5157 1.94495 54.472 2.05789 62.5052C2.17083 70.5385 4.08413 78.4441 7.65694 85.64C11.2297 92.8359 16.3711 99.1388 22.7023 104.085C29.0336 109.03 36.3935 112.493 44.2402 114.218C52.087 115.943 60.2206 115.886 68.0424 114.051C75.8641 112.216 83.1746 108.65 89.4357 103.616C95.6968 98.5812 100.749 92.2067 104.22 84.9613C107.692 77.7159 109.494 69.7841 109.494 61.7501H55.7731L7.00437 39.2222Z" fill="#4D5E9D" stroke="white"/>
<path d="M90.7989 21.0181L99.5553 10.8351" stroke="#FDD985"/>
<path d="M101.481 8.83676C101.2 8.83676 100.95 8.78846 100.729 8.69187C100.511 8.59528 100.337 8.46105 100.207 8.28917C100.08 8.11588 100.01 7.91488 99.9985 7.68619H100.535C100.547 7.82682 100.595 7.94826 100.68 8.05054C100.766 8.15139 100.877 8.22951 101.015 8.28491C101.153 8.34031 101.305 8.36801 101.473 8.36801C101.66 8.36801 101.827 8.33534 101.972 8.27C102.116 8.20466 102.23 8.11375 102.312 7.99727C102.395 7.88079 102.436 7.74585 102.436 7.59244C102.436 7.43193 102.396 7.29059 102.317 7.16843C102.237 7.04486 102.121 6.94826 101.967 6.87866C101.814 6.80906 101.626 6.77426 101.405 6.77426H101.055V6.30551H101.405C101.578 6.30551 101.73 6.27426 101.861 6.21176C101.993 6.14926 102.096 6.06119 102.17 5.94755C102.245 5.83392 102.283 5.70039 102.283 5.54699C102.283 5.39926 102.25 5.27071 102.185 5.16133C102.119 5.05196 102.027 4.96673 101.908 4.90565C101.79 4.84457 101.651 4.81403 101.49 4.81403C101.339 4.81403 101.197 4.84173 101.064 4.89713C100.932 4.95111 100.824 5.02994 100.74 5.13363C100.656 5.23591 100.611 5.35949 100.604 5.50437H100.092C100.101 5.27568 100.17 5.07539 100.299 4.90352C100.428 4.73022 100.597 4.59528 100.806 4.49869C101.016 4.4021 101.247 4.3538 101.499 4.3538C101.768 4.3538 102 4.40849 102.193 4.51787C102.386 4.62582 102.535 4.76858 102.638 4.94613C102.742 5.12369 102.794 5.31545 102.794 5.52142C102.794 5.76716 102.729 5.97667 102.6 6.14997C102.472 6.32326 102.298 6.44329 102.078 6.51005V6.54415C102.354 6.5896 102.569 6.70679 102.724 6.89571C102.879 7.08321 102.956 7.31545 102.956 7.59244C102.956 7.82966 102.891 8.04272 102.762 8.23165C102.634 8.41915 102.459 8.56687 102.238 8.67483C102.016 8.78278 101.764 8.83676 101.481 8.83676ZM105.191 8.83676C104.941 8.83676 104.716 8.78704 104.516 8.68761C104.315 8.58818 104.155 8.45182 104.034 8.27852C103.913 8.10522 103.847 7.90778 103.836 7.68619H104.347C104.367 7.88363 104.457 8.04699 104.616 8.17625C104.776 8.30409 104.968 8.36801 105.191 8.36801C105.37 8.36801 105.529 8.32611 105.668 8.2423C105.809 8.15849 105.919 8.04343 105.999 7.89713C106.08 7.7494 106.12 7.5825 106.12 7.39642C106.12 7.20608 106.078 7.03633 105.994 6.88718C105.912 6.73662 105.798 6.61801 105.653 6.53136C105.508 6.44471 105.343 6.40068 105.157 6.39926C105.023 6.39784 104.886 6.41843 104.746 6.46105C104.605 6.50224 104.489 6.55551 104.398 6.62085L103.904 6.56119L104.168 4.41346H106.435V4.88221H104.611L104.458 6.16915H104.484C104.573 6.09812 104.685 6.03917 104.82 5.9923C104.955 5.94542 105.096 5.92199 105.242 5.92199C105.509 5.92199 105.747 5.98591 105.956 6.11375C106.166 6.24017 106.331 6.41346 106.45 6.63363C106.571 6.8538 106.631 7.10522 106.631 7.3879C106.631 7.6663 106.569 7.91488 106.444 8.13363C106.32 8.35096 106.15 8.52284 105.932 8.64926C105.715 8.77426 105.468 8.83676 105.191 8.83676ZM107.478 8.7771V8.39358L108.918 6.81687C109.087 6.63221 109.226 6.4717 109.336 6.33534C109.445 6.19755 109.526 6.06829 109.579 5.94755C109.633 5.82539 109.66 5.69755 109.66 5.56403C109.66 5.41062 109.623 5.27781 109.549 5.16559C109.476 5.05338 109.377 4.96673 109.25 4.90565C109.124 4.84457 108.982 4.81403 108.824 4.81403C108.657 4.81403 108.51 4.84883 108.385 4.91843C108.262 4.98662 108.166 5.0825 108.098 5.20608C108.031 5.32966 107.998 5.47454 107.998 5.64074H107.495C107.495 5.38505 107.554 5.16062 107.672 4.96744C107.79 4.77426 107.95 4.62369 108.153 4.51574C108.358 4.40778 108.587 4.3538 108.841 4.3538C109.097 4.3538 109.324 4.40778 109.521 4.51574C109.719 4.62369 109.873 4.76929 109.986 4.95253C110.098 5.13576 110.154 5.3396 110.154 5.56403C110.154 5.72454 110.125 5.8815 110.067 6.03491C110.01 6.1869 109.91 6.35665 109.768 6.54415C109.628 6.73022 109.432 6.9575 109.182 7.22596L108.202 8.27426V8.30835H110.231V8.7771H107.478Z" fill="#4D5E9D"/>
<path d="M23.5103 18.7965L15.4446 8.05811" stroke="#EC5589"/>
<path d="M4.88073 6V5.61648L6.32107 4.03977C6.4901 3.85511 6.62931 3.6946 6.73868 3.55824C6.84806 3.42045 6.92902 3.29119 6.98158 3.17045C7.03556 3.0483 7.06255 2.92045 7.06255 2.78693C7.06255 2.63352 7.02561 2.50071 6.95175 2.38849C6.87931 2.27628 6.77988 2.18963 6.65346 2.12855C6.52704 2.06747 6.38499 2.03693 6.22732 2.03693C6.05971 2.03693 5.9134 2.07173 5.7884 2.14134C5.66482 2.20952 5.56894 2.3054 5.50076 2.42898C5.434 2.55256 5.40061 2.69744 5.40061 2.86364H4.89777C4.89777 2.60795 4.95672 2.38352 5.07462 2.19034C5.19252 1.99716 5.35303 1.84659 5.55615 1.73864C5.7607 1.63068 5.9901 1.5767 6.24436 1.5767C6.50005 1.5767 6.72661 1.63068 6.92405 1.73864C7.1215 1.84659 7.27632 1.99219 7.38854 2.17543C7.50076 2.35866 7.55686 2.5625 7.55686 2.78693C7.55686 2.94744 7.52775 3.1044 7.46951 3.25781C7.41269 3.4098 7.31326 3.57955 7.17121 3.76705C7.03059 3.95312 6.83527 4.1804 6.58527 4.44886L5.60516 5.49716V5.53125H7.63357V6H4.88073ZM9.93684 6.05966C9.61581 6.05966 9.34238 5.9723 9.11652 5.79759C8.89067 5.62145 8.71809 5.36648 8.59877 5.03267C8.47945 4.69744 8.41979 4.29261 8.41979 3.81818C8.41979 3.34659 8.47945 2.94389 8.59877 2.61009C8.71951 2.27486 8.8928 2.01918 9.11865 1.84304C9.34593 1.66548 9.61865 1.5767 9.93684 1.5767C10.255 1.5767 10.527 1.66548 10.7529 1.84304C10.9802 2.01918 11.1535 2.27486 11.2728 2.61009C11.3935 2.94389 11.4539 3.34659 11.4539 3.81818C11.4539 4.29261 11.3942 4.69744 11.2749 5.03267C11.1556 5.36648 10.983 5.62145 10.7571 5.79759C10.5313 5.9723 10.2579 6.05966 9.93684 6.05966ZM9.93684 5.59091C10.255 5.59091 10.5022 5.4375 10.6783 5.13068C10.8544 4.82386 10.9425 4.38636 10.9425 3.81818C10.9425 3.44034 10.902 3.11861 10.8211 2.85298C10.7415 2.58736 10.6265 2.38494 10.4759 2.24574C10.3268 2.10653 10.1471 2.03693 9.93684 2.03693C9.6215 2.03693 9.37505 2.19247 9.19749 2.50355C9.01993 2.81321 8.93115 3.25142 8.93115 3.81818C8.93115 4.19602 8.97093 4.51705 9.05047 4.78125C9.13002 5.04545 9.24436 5.24645 9.39351 5.38423C9.54408 5.52202 9.72519 5.59091 9.93684 5.59091ZM12.2635 6V5.61648L13.7039 4.03977C13.8729 3.85511 14.0121 3.6946 14.1215 3.55824C14.2309 3.42045 14.3118 3.29119 14.3644 3.17045C14.4184 3.0483 14.4454 2.92045 14.4454 2.78693C14.4454 2.63352 14.4084 2.50071 14.3346 2.38849C14.2621 2.27628 14.1627 2.18963 14.0363 2.12855C13.9098 2.06747 13.7678 2.03693 13.6101 2.03693C13.4425 2.03693 13.2962 2.07173 13.1712 2.14134C13.0476 2.20952 12.9518 2.3054 12.8836 2.42898C12.8168 2.55256 12.7834 2.69744 12.7834 2.86364H12.2806C12.2806 2.60795 12.3395 2.38352 12.4574 2.19034C12.5753 1.99716 12.7358 1.84659 12.939 1.73864C13.1435 1.63068 13.3729 1.5767 13.6272 1.5767C13.8829 1.5767 14.1094 1.63068 14.3069 1.73864C14.5043 1.84659 14.6591 1.99219 14.7714 2.17543C14.8836 2.35866 14.9397 2.5625 14.9397 2.78693C14.9397 2.94744 14.9106 3.1044 14.8523 3.25781C14.7955 3.4098 14.6961 3.57955 14.554 3.76705C14.4134 3.95312 14.2181 4.1804 13.9681 4.44886L12.988 5.49716V5.53125H15.0164V6H12.2635Z" fill="#4D5E9D"/>
<path d="M44.2403 114.218L41.3571 127.335" stroke="#4D5E9D"/>
<path d="M32.0076 125.277L33.9593 121.416V121.382H31.7093V120.913H34.5048V121.408L32.5616 125.277H32.0076ZM36.6738 125.337C36.3926 125.337 36.1418 125.288 35.9217 125.192C35.7029 125.095 35.5289 124.961 35.3997 124.789C35.2718 124.616 35.2022 124.415 35.1908 124.186H35.7278C35.7391 124.327 35.7874 124.448 35.8727 124.55C35.9579 124.651 36.0694 124.729 36.2072 124.785C36.345 124.84 36.4977 124.868 36.6653 124.868C36.8528 124.868 37.019 124.835 37.1639 124.77C37.3087 124.704 37.4224 124.614 37.5048 124.497C37.5872 124.381 37.6283 124.246 37.6283 124.092C37.6283 123.932 37.5886 123.79 37.509 123.668C37.4295 123.545 37.313 123.448 37.1596 123.378C37.0062 123.309 36.8187 123.274 36.5971 123.274H36.2477V122.805H36.5971C36.7704 122.805 36.9224 122.774 37.0531 122.712C37.1852 122.649 37.2881 122.561 37.362 122.447C37.4373 122.334 37.4749 122.2 37.4749 122.047C37.4749 121.899 37.4423 121.771 37.3769 121.661C37.3116 121.552 37.2193 121.467 37.0999 121.405C36.982 121.344 36.8428 121.314 36.6823 121.314C36.5318 121.314 36.3897 121.342 36.2562 121.397C36.1241 121.451 36.0161 121.53 35.9323 121.633C35.8485 121.736 35.8031 121.859 35.796 122.004H35.2846C35.2931 121.775 35.362 121.575 35.4913 121.403C35.6205 121.23 35.7896 121.095 35.9984 120.999C36.2086 120.902 36.4394 120.854 36.6908 120.854C36.9607 120.854 37.1923 120.908 37.3854 121.018C37.5786 121.126 37.7271 121.268 37.8308 121.446C37.9345 121.624 37.9863 121.815 37.9863 122.021C37.9863 122.267 37.9217 122.476 37.7924 122.65C37.6646 122.823 37.4906 122.943 37.2704 123.01V123.044C37.546 123.089 37.7612 123.207 37.916 123.396C38.0708 123.583 38.1482 123.815 38.1482 124.092C38.1482 124.329 38.0836 124.543 37.9543 124.731C37.8265 124.919 37.6518 125.067 37.4302 125.175C37.2086 125.283 36.9565 125.337 36.6738 125.337ZM40.5538 120.913V125.277H40.0254V121.467H39.9998L38.9345 122.175V121.638L40.0254 120.913H40.5538Z" fill="#4D5E9D"/>
</svg>
