<svg width="24" height="24" viewBox="0 0 24 24" fill="none" xmlns="http://www.w3.org/2000/svg">
<g id="Icon">
<path id="Vector" fill-rule="evenodd" clip-rule="evenodd" d="M12 7.81396C10.8275 7.81396 9.70294 8.25499 8.87383 9.04003C8.04471 9.82507 7.57892 10.8898 7.57892 12C7.57892 13.1102 8.04471 14.175 8.87383 14.96C9.70294 15.745 10.8275 16.1861 12 16.1861C13.1726 16.1861 14.2971 15.745 15.1262 14.96C15.9553 14.175 16.4211 13.1102 16.4211 12C16.4211 10.8898 15.9553 9.82507 15.1262 9.04003C14.2971 8.25499 13.1726 7.81396 12 7.81396ZM9.34735 12C9.34735 11.3339 9.62683 10.695 10.1243 10.224C10.6218 9.753 11.2965 9.48838 12 9.48838C12.7035 9.48838 13.3782 9.753 13.8757 10.224C14.3732 10.695 14.6527 11.3339 14.6527 12C14.6527 12.6661 14.3732 13.305 13.8757 13.776C13.3782 14.247 12.7035 14.5116 12 14.5116C11.2965 14.5116 10.6218 14.247 10.1243 13.776C9.62683 13.305 9.34735 12.6661 9.34735 12Z" fill="black"/>
<path id="Vector_2" fill-rule="evenodd" clip-rule="evenodd" d="M11.9705 0C11.4459 0 11.0085 -2.07923e-08 10.6501 0.0223256C10.2837 0.0367699 9.92244 0.108433 9.58078 0.234419C9.1873 0.388565 8.82975 0.614593 8.52854 0.899595C8.22734 1.1846 7.98838 1.52299 7.82531 1.89544C7.65436 2.28614 7.60838 2.69916 7.58952 3.14791C7.58763 3.31202 7.54175 3.473 7.45617 3.61573C7.37059 3.75845 7.24812 3.87826 7.10025 3.96391C6.94803 4.04261 6.77718 4.08339 6.60374 4.08241C6.4303 4.08143 6.25998 4.03874 6.10875 3.95833C5.68904 3.74847 5.2882 3.57991 4.84491 3.52409C4.42278 3.47152 3.99384 3.49819 3.58259 3.60257C3.17135 3.70696 2.78584 3.88701 2.44809 4.13247C2.16251 4.35001 1.91675 4.61061 1.72067 4.90381C1.52025 5.18735 1.30096 5.54567 1.03923 5.97544L1.00976 6.02456C0.746853 6.45433 0.528745 6.81265 0.370765 7.11851C0.205711 7.43777 0.0760259 7.75256 0.0288676 8.10084C-0.0836046 8.9079 0.147093 9.72421 0.670221 10.3702C0.94256 10.7062 1.29743 10.9507 1.69827 11.1896C1.84772 11.2732 1.97223 11.3915 2.06009 11.5333C2.14795 11.6751 2.19627 11.8357 2.20051 12C2.19627 12.1643 2.14795 12.3249 2.06009 12.4667C1.97223 12.6085 1.84772 12.7268 1.69827 12.8104C1.29743 13.0493 0.943739 13.2938 0.670221 13.6298C0.410987 13.9496 0.220819 14.3146 0.110573 14.704C0.000327087 15.0933 -0.027837 15.4995 0.0276888 15.8992C0.076026 16.2474 0.204532 16.5622 0.369586 16.8815C0.528746 17.1873 0.746853 17.5457 1.00976 17.9754L1.03923 18.0246C1.30096 18.4543 1.52025 18.8127 1.72067 19.0962C1.92935 19.3898 2.15335 19.6543 2.44809 19.8664C2.78575 20.1121 3.17122 20.2923 3.58247 20.3969C3.99372 20.5015 4.4227 20.5283 4.84491 20.4759C5.2882 20.4201 5.68904 20.2527 6.10875 20.0417C6.2598 19.9614 6.42992 19.9187 6.60315 19.9177C6.77638 19.9168 6.94703 19.9575 7.09907 20.0361C7.24776 20.1211 7.371 20.2407 7.45706 20.3835C7.54311 20.5263 7.58912 20.6877 7.5907 20.8521C7.60838 21.3008 7.65436 21.7139 7.82649 22.1046C7.98929 22.4771 8.22801 22.8157 8.52902 23.1009C8.83002 23.386 9.18741 23.6123 9.58078 23.7667C9.92268 23.9007 10.2764 23.9531 10.6501 23.9766C11.0085 24 11.4459 24 11.9705 24H12.0295C12.5541 24 12.9915 24 13.3499 23.9777C13.7248 23.9531 14.0773 23.9007 14.4192 23.7656C14.8127 23.6114 15.1702 23.3854 15.4715 23.1004C15.7727 22.8154 16.0116 22.477 16.1747 22.1046C16.3456 21.7139 16.3916 21.3008 16.4105 20.8521C16.4122 20.6878 16.458 20.5266 16.5435 20.3836C16.6291 20.2407 16.7517 20.1207 16.8997 20.035C17.0521 19.9564 17.223 19.9159 17.3964 19.917C17.5698 19.9182 17.7401 19.9611 17.8912 20.0417C18.311 20.2515 18.7118 20.4201 19.1551 20.4748C20.0075 20.5813 20.8696 20.3629 21.5519 19.8675C21.8466 19.6532 22.0707 19.3898 22.2793 19.0962C22.4798 18.8127 22.699 18.4543 22.9608 18.0246L22.9902 17.9754C23.2531 17.5457 23.4713 17.1873 23.6292 16.8815C23.7943 16.5622 23.924 16.2463 23.9711 15.8992C24.0836 15.0921 23.8529 14.2758 23.3298 13.6298C23.0574 13.2938 22.7026 13.0493 22.3017 12.8104C22.1523 12.7268 22.0278 12.6085 21.9399 12.4667C21.8521 12.3249 21.8037 12.1643 21.7995 12C21.7995 11.6897 21.9787 11.3816 22.3017 11.1896C22.7026 10.9507 23.0563 10.7062 23.3298 10.3702C23.589 10.0504 23.7792 9.68543 23.8894 9.29604C23.9997 8.90666 24.0278 8.50053 23.9723 8.10084C23.9162 7.75782 23.8007 7.42591 23.6304 7.11851C23.4291 6.74763 23.2156 6.3828 22.9902 6.02456L22.9608 5.97544C22.7454 5.61163 22.5181 5.25425 22.2793 4.90381C22.0833 4.61092 21.8375 4.35068 21.5519 4.13358C21.2142 3.88794 20.8288 3.70768 20.4175 3.6031C20.0063 3.49852 19.5773 3.47168 19.1551 3.52409C18.7118 3.57991 18.311 3.74735 17.8912 3.95833C17.7402 4.03854 17.5701 4.08112 17.3968 4.0821C17.2236 4.08308 17.053 4.04241 16.9009 3.96391C16.7526 3.87853 16.6297 3.75884 16.5437 3.61609C16.4577 3.47335 16.4114 3.31223 16.4093 3.14791C16.3916 2.69916 16.3456 2.28614 16.1735 1.89544C16.0107 1.52288 15.772 1.18434 15.471 0.899148C15.17 0.613955 14.8126 0.387699 14.4192 0.233302C14.0773 0.0993488 13.7236 0.0468838 13.3499 0.0234419C12.9915 3.11885e-08 12.5541 0 12.0295 0H11.9705ZM10.2575 1.78047C10.3483 1.74474 10.4862 1.71237 10.7703 1.6934C11.0615 1.67442 11.4388 1.67442 12 1.67442C12.5612 1.67442 12.9384 1.67442 13.2297 1.6934C13.5138 1.71237 13.6517 1.74474 13.7425 1.78047C14.1044 1.92223 14.3909 2.19349 14.5407 2.53619C14.5878 2.64335 14.6267 2.81191 14.642 3.21042C14.6774 4.09451 15.1596 4.94623 16.0155 5.41395C16.8715 5.88279 17.8912 5.85154 18.7177 5.43851C19.0902 5.25209 19.2636 5.19963 19.3862 5.18512C19.7735 5.13665 20.1654 5.23583 20.4755 5.46084C20.5533 5.51777 20.6524 5.61488 20.8115 5.83814C20.9754 6.06809 21.164 6.3773 21.4446 6.83721C21.7252 7.29712 21.9127 7.60744 22.0412 7.85526C22.1673 8.09749 22.2062 8.22698 22.218 8.31963C22.2692 8.6864 22.1645 9.0574 21.9268 9.35107C21.8514 9.44372 21.717 9.55981 21.3609 9.77191C20.5687 10.243 20.0311 11.0646 20.0311 12C20.0311 12.9354 20.5687 13.757 21.3609 14.2281C21.717 14.4402 21.8514 14.5563 21.9268 14.6489C22.165 14.9425 22.2687 15.3131 22.218 15.6804C22.2062 15.773 22.1661 15.9036 22.0412 16.1447C21.9127 16.3937 21.7252 16.7029 21.4446 17.1628C21.164 17.6227 20.9742 17.9319 20.8115 18.1619C20.6524 18.3851 20.5533 18.4822 20.4755 18.5392C20.1654 18.7642 19.7735 18.8633 19.3862 18.8149C19.2636 18.8004 19.0914 18.7479 18.7177 18.5615C17.8924 18.1485 16.8715 18.1172 16.0155 18.5849C15.1596 19.0538 14.6774 19.9055 14.642 20.7896C14.6267 21.1881 14.5878 21.3567 14.5407 21.4638C14.4666 21.6333 14.358 21.7872 14.221 21.9169C14.0841 22.0466 13.9215 22.1494 13.7425 22.2195C13.6517 22.2553 13.5138 22.2876 13.2297 22.3066C12.9384 22.3256 12.5612 22.3256 12 22.3256C11.4388 22.3256 11.0615 22.3256 10.7703 22.3066C10.4862 22.2876 10.3483 22.2553 10.2575 22.2195C10.0785 22.1494 9.91593 22.0466 9.77898 21.9169C9.64202 21.7872 9.53341 21.6333 9.45935 21.4638C9.41219 21.3567 9.37328 21.1881 9.35796 20.7896C9.32259 19.9055 8.84039 19.0538 7.98447 18.586C7.12855 18.1172 6.10875 18.1485 5.2823 18.5615C4.90975 18.7479 4.73644 18.8004 4.61383 18.8149C4.22647 18.8633 3.83463 18.7642 3.52448 18.5392C3.44666 18.4822 3.34763 18.3851 3.18847 18.1619C2.96672 17.835 2.75559 17.5019 2.55537 17.1628C2.27478 16.7029 2.08733 16.3926 1.95882 16.1447C1.83267 15.9025 1.79377 15.773 1.78198 15.6804C1.73079 15.3136 1.83554 14.9426 2.07318 14.6489C2.14863 14.5563 2.28303 14.4402 2.63908 14.2281C3.43134 13.757 3.96894 12.9354 3.96894 12C3.96894 11.0646 3.43134 10.243 2.63908 9.77191C2.28303 9.55981 2.14863 9.44372 2.07318 9.35107C1.83554 9.0574 1.73079 8.6864 1.78198 8.31963C1.79377 8.22698 1.83385 8.09637 1.95882 7.85526C2.08733 7.60633 2.27478 7.29712 2.55537 6.83721C2.83597 6.3773 3.02578 6.06809 3.18847 5.83814C3.34763 5.61488 3.44666 5.51777 3.52448 5.46084C3.83463 5.23583 4.22647 5.13665 4.61383 5.18512C4.73644 5.19963 4.90857 5.25209 5.2823 5.43851C6.10757 5.85154 7.12855 5.88279 7.98447 5.41395C8.84039 4.94623 9.32259 4.09451 9.35796 3.21042C9.37328 2.81191 9.41219 2.64335 9.45935 2.53619C9.60907 2.19349 9.89556 1.92223 10.2575 1.78047Z" fill="black"/>
</g>
</svg>
